<?xml version="1.0" standalone="no"?>
<!DOCTYPE svg PUBLIC "-//W3C//DTD SVG 20010904//EN"
 "http://www.w3.org/TR/2001/REC-SVG-20010904/DTD/svg10.dtd">
<svg version="1.0" xmlns="http://www.w3.org/2000/svg"
 width="960.000000pt" height="960.000000pt" viewBox="0 0 960.000000 960.000000"
 preserveAspectRatio="xMidYMid meet">
<metadata>
Created by potrace 1.11, written by Peter Selinger 2001-2013
</metadata>
<g transform="translate(0.000000,960.000000) scale(0.100000,-0.100000)"
fill="#000000" stroke="none">
<path d="M1 4798 c1 -2642 5 -4785 8 -4763 9 53 31 92 145 265 240 364 261
390 466 556 70 58 163 145 212 201 l87 100 163 44 c163 44 163 44 314 41 l152
-2 53 36 c90 60 160 91 293 129 152 42 228 76 339 147 45 30 125 78 178 107
53 29 141 87 195 128 140 106 347 241 429 279 73 34 155 52 155 34 0 -5 -7
-10 -16 -10 -8 0 -12 -5 -9 -11 12 -18 -22 -45 -118 -94 -51 -26 -108 -59
-127 -74 -19 -15 -57 -42 -85 -61 -27 -18 -90 -68 -140 -110 -49 -42 -100 -82
-113 -89 -12 -7 -20 -16 -17 -21 3 -5 1 -11 -5 -15 -5 -3 -10 -11 -10 -16 0
-14 40 9 40 24 1 7 16 21 34 33 l33 21 -7 -36 c-4 -20 -14 -49 -22 -66 -9 -16
-25 -60 -36 -97 -21 -65 -109 -292 -209 -533 -61 -145 -94 -235 -123 -335 -12
-41 -40 -127 -62 -190 -21 -63 -49 -147 -61 -185 -21 -68 -52 -121 -109 -190
-34 -40 -35 -45 -2 -45 26 0 54 20 54 39 0 17 85 152 88 141 5 -13 -69 -160
-80 -160 -5 0 -8 -4 -8 -10 0 -6 106 -10 298 -10 l299 0 31 103 c79 258 88
322 97 692 3 110 8 272 11 361 7 172 -2 260 -38 343 -37 87 -39 118 -11 177
34 72 181 203 247 220 14 3 26 10 26 15 0 5 5 9 12 9 6 0 22 10 35 22 32 30
38 18 12 -26 -61 -104 -81 -316 -42 -461 12 -44 20 -98 18 -120 -11 -149 -9
-209 7 -199 8 5 9 2 5 -9 -3 -10 -2 -17 3 -17 6 0 10 -9 10 -21 0 -11 5 -30
11 -41 10 -18 9 -20 -5 -15 -11 4 -20 -3 -31 -22 -17 -35 -10 -45 19 -25 28
17 37 10 30 -25 -5 -29 14 -65 23 -43 5 13 23 7 23 -9 0 -6 -4 -7 -10 -4 -6 4
-10 -5 -10 -19 0 -14 5 -26 10 -26 6 0 10 5 10 12 0 6 3 9 6 6 3 -3 -1 -16 -8
-28 -11 -18 -11 -23 5 -35 17 -12 17 -14 -5 -29 -21 -16 -22 -18 -5 -27 18
-11 24 -39 7 -39 -5 0 -2 -15 7 -32 9 -18 20 -40 24 -48 4 -8 12 -14 18 -12
16 3 13 -15 -3 -21 -23 -9 1 -76 24 -70 20 5 25 -6 36 -79 7 -56 -10 -67 -20
-13 -9 46 -23 45 -18 0 4 -34 31 -62 46 -48 3 3 6 -1 6 -9 0 -11 -6 -14 -20
-11 -19 5 -19 2 -13 -43 3 -27 12 -53 20 -57 16 -10 17 -37 1 -37 -8 -1 -6 -6
5 -14 9 -7 17 -23 17 -35 0 -11 3 -21 8 -21 10 0 9 -142 -1 -158 -7 -9 56 -12
302 -12 l311 0 0 33 0 32 21 -32 c12 -18 29 -33 40 -33 20 0 26 15 9 25 -5 3
-19 38 -30 77 -23 76 -66 187 -100 256 -11 23 -23 56 -27 72 -3 17 -10 33 -15
36 -6 4 -8 -1 -5 -12 11 -39 18 -94 12 -94 -20 0 -36 33 -30 59 3 17 2 32 -4
36 -6 3 -11 -1 -11 -9 0 -9 -5 -16 -10 -16 -6 0 -8 10 -4 24 8 33 -28 55 -52
31 -19 -18 -34 -20 -34 -2 0 6 -3 23 -7 36 -4 17 -3 22 5 17 7 -4 12 -16 12
-27 0 -27 19 -24 30 7 13 32 13 54 1 35 -11 -17 -23 1 -15 22 3 8 -2 29 -10
46 -9 17 -16 33 -16 36 1 25 -1 27 -15 15 -13 -11 -15 -8 -15 14 0 15 -7 38
-16 51 -9 13 -13 28 -11 33 3 4 1 14 -4 22 -7 12 -11 13 -18 2 -5 -9 -10 2
-15 34 -7 54 1 74 10 26 7 -35 18 -41 28 -15 6 14 9 12 22 -12 9 -17 11 -32 5
-38 -9 -9 8 -67 20 -67 4 0 10 10 13 22 l6 23 20 -24 c11 -13 20 -29 20 -37 0
-8 6 -14 14 -14 14 0 33 54 27 75 -28 92 -38 210 -20 235 8 12 9 10 4 -8 -10
-34 32 -233 66 -320 28 -69 112 -313 145 -417 6 -22 24 -79 39 -128 15 -48 32
-90 37 -93 5 -3 4 -12 -3 -20 -10 -12 124 -14 952 -14 l964 0 3 138 c1 75 7
173 13 217 11 80 13 503 3 560 -8 42 22 301 40 352 8 23 22 92 31 155 23 153
51 268 73 298 11 14 25 43 32 65 21 68 124 299 128 287 1 -5 -4 -27 -13 -49
-9 -21 -34 -87 -56 -146 -21 -59 -44 -117 -50 -128 -9 -17 -7 -25 12 -45 28
-30 27 -95 -2 -257 -11 -62 -26 -166 -34 -232 -17 -153 -40 -286 -60 -350 -19
-60 -33 -148 -41 -246 -3 -41 -11 -137 -19 -214 -8 -77 -17 -191 -20 -254 -4
-63 -11 -123 -16 -133 -9 -16 -5 -18 30 -18 l40 0 6 58 c4 31 12 72 18 91 12
33 12 33 57 26 48 -8 85 -8 217 -3 72 3 85 0 110 -19 46 -37 176 -111 206
-118 15 -4 27 -11 27 -16 0 -20 -41 -6 -119 41 -84 51 -126 64 -114 34 3 -8
-3 -27 -14 -42 -11 -15 -23 -33 -27 -40 -6 -9 197 -12 998 -12 951 0 1006 1
1006 18 0 30 61 203 85 242 29 45 88 97 150 130 46 25 46 25 61 5 8 -11 13
-27 11 -35 -3 -8 -17 -55 -32 -105 -15 -50 -35 -118 -45 -153 -9 -34 -26 -72
-35 -82 -18 -20 -17 -20 68 -20 l87 0 -6 28 c-5 25 8 107 47 300 16 80 42 86
157 35 29 -13 67 -23 86 -23 41 0 61 -21 77 -83 16 -64 8 -197 -15 -231 l-16
-26 94 0 c106 0 102 -3 105 79 1 24 8 59 16 78 14 32 17 34 47 28 104 -21 133
-40 109 -69 -10 -12 -61 -107 -61 -113 0 -2 43 -3 95 -3 l95 0 0 120 c0 92 -3
120 -13 120 -14 0 -18 5 -430 533 -26 34 -84 115 -128 179 -92 134 -136 176
-258 244 -47 26 -137 78 -199 115 -62 37 -147 81 -190 97 -42 16 -167 63 -277
105 -224 85 -425 147 -481 147 -20 0 -69 12 -108 26 -39 14 -151 48 -250 75
-98 27 -235 68 -305 92 -69 25 -151 50 -181 57 -30 7 -59 16 -65 20 -5 5 -32
15 -60 23 -27 8 -84 32 -125 53 -41 22 -114 55 -162 74 -48 19 -90 41 -93 49
-3 7 6 39 19 70 13 31 32 79 41 106 9 28 34 104 56 170 75 226 95 348 129 800
15 200 30 301 61 415 34 124 74 327 89 449 6 47 19 120 29 161 11 41 22 123
25 182 8 139 27 203 66 223 28 15 90 93 90 114 0 6 -11 11 -25 11 -43 0 -138
55 -183 107 -23 26 -53 60 -66 75 -32 35 -44 100 -45 228 -1 121 14 166 24 74
25 -236 45 -314 79 -314 17 0 89 77 109 116 8 16 22 70 31 119 9 50 31 151 49
225 40 171 44 301 9 365 -40 71 -27 119 72 265 32 47 56 95 56 109 0 47 -40
125 -76 149 -53 35 -67 73 -68 182 l-1 95 -30 14 c-16 8 -63 16 -105 19 -85 5
-110 15 -110 42 0 11 -27 48 -60 83 -61 66 -140 203 -140 244 0 12 -4 25 -10
28 -6 3 -10 17 -10 31 0 38 -26 93 -65 135 -35 39 -46 66 -22 56 49 -20 47
-21 41 14 -3 19 -7 40 -10 47 -5 19 25 0 61 -37 17 -17 79 -75 138 -128 l109
-97 -22 -18 c-25 -20 -56 -23 -94 -8 -15 5 -35 6 -48 1 -25 -10 -25 -10 50
-30 23 -7 42 -18 42 -25 0 -8 -18 -30 -40 -50 -45 -41 -48 -46 -21 -46 21 0
71 53 71 75 0 14 98 101 105 93 9 -8 -26 -111 -51 -150 -13 -21 -33 -44 -44
-50 -24 -15 -26 -46 -5 -74 14 -18 15 -18 39 11 20 24 25 26 26 12 0 -10 -5
-27 -11 -38 -5 -11 -8 -28 -6 -37 6 -24 37 49 37 86 0 16 12 62 26 103 15 41
34 107 44 148 16 66 16 80 4 120 -8 25 -14 66 -14 91 0 26 -8 58 -19 75 -17
29 -36 41 -197 134 -39 22 -109 68 -155 103 -106 78 -219 151 -225 145 -4 -4
41 -42 92 -77 12 -8 55 -40 95 -71 41 -30 112 -79 159 -109 215 -135 209 -130
220 -169 20 -73 12 -77 -43 -23 -98 100 -228 162 -340 162 -36 0 -54 5 -63 18
-13 16 -13 16 -14 0 0 -19 -15 -24 -24 -9 -4 5 0 11 6 14 7 2 -15 7 -50 12
-67 8 -76 13 -61 35 8 12 12 12 16 3 7 -18 23 -16 23 2 0 8 -4 15 -10 15 -18
0 -178 144 -274 248 -27 29 -54 51 -61 48 -7 -2 -27 5 -46 16 -27 16 -43 19
-84 14 -27 -4 -62 -8 -76 -10 -17 -1 -47 -24 -82 -61 l-56 -58 -33 25 c-18 14
-48 33 -65 42 -32 16 -95 71 -215 186 l-58 55 -5 160 c-3 88 -11 243 -18 345
-7 102 -12 285 -11 408 0 245 1 247 58 231 17 -5 197 -9 401 -9 203 0 377 -1
385 -1 8 0 132 0 275 0 143 0 321 -2 395 -4 74 -2 244 -6 378 -9 133 -3 246
-8 251 -11 5 -2 195 -8 422 -11 228 -3 438 -10 467 -14 28 -5 58 -7 66 -4 18
7 56 -13 56 -29 0 -20 50 -109 87 -153 43 -53 81 -69 165 -68 70 0 98 13 98
45 0 11 20 45 45 77 44 56 55 82 34 82 -5 0 -8 4 -5 8 2 4 17 7 33 6 15 -1 39
-2 53 -3 l25 -1 -22 -18 c-13 -9 -31 -33 -41 -52 -10 -19 -31 -58 -46 -86 -15
-29 -37 -56 -49 -62 -21 -10 -20 -11 7 -11 19 -1 44 11 72 34 49 40 58 43 49
15 -5 -15 -2 -20 13 -20 11 0 31 -9 45 -20 14 -11 30 -20 37 -20 22 0 4 24
-41 56 -24 17 -46 39 -48 49 -2 11 10 45 25 78 l29 58 70 -5 c154 -12 652 -19
670 -9 13 8 -5 12 -71 17 -50 4 -92 13 -96 19 -33 52 27 402 79 459 15 17 -77
18 -2483 18 -1374 0 -2493 -4 -2486 -9 10 -6 13 -76 12 -332 0 -178 -3 -345
-6 -370 -4 -26 -1 -93 5 -150 18 -176 24 -521 11 -586 -7 -32 -34 -103 -61
-158 -53 -108 -68 -155 -50 -155 6 0 11 4 11 9 0 27 166 241 187 241 10 0 0
-23 -17 -37 -22 -19 -27 -43 -8 -43 6 0 -14 -26 -45 -57 -89 -92 -120 -141
-119 -185 1 -22 9 -52 17 -68 l15 -29 -46 -7 c-78 -11 -158 12 -223 66 -58 48
-91 66 -91 50 0 -5 10 -15 23 -22 20 -11 17 -13 -37 -20 -33 -4 -62 -6 -64 -3
-3 2 0 37 6 77 6 40 16 208 22 373 5 165 15 372 20 460 6 88 13 246 15 350 11
437 23 568 53 591 14 11 -353 13 -2030 14 l-2048 0 1 -4802z m5739 4772 c0 -5
-2 -10 -4 -10 -3 0 -8 5 -11 10 -3 6 -1 10 4 10 6 0 11 -4 11 -10z m59 -155
c0 -5 -6 1 -14 15 -8 14 -14 30 -14 35 0 6 6 -1 14 -15 8 -14 14 -29 14 -35z
m2616 -305 c39 -5 91 -10 117 -10 46 0 47 -1 32 -19 -12 -14 -24 -17 -48 -12
-17 4 -57 7 -88 6 -39 -1 -59 3 -62 12 -4 9 -26 13 -70 13 -64 0 -97 14 -54
23 23 5 45 3 173 -13z m34 -171 c-16 -31 -39 -11 -39 33 0 35 2 39 15 28 13
-11 15 -8 16 21 1 29 3 26 10 -15 5 -30 4 -57 -2 -67z m92 68 c-8 -8 -11 -5
-11 9 0 27 14 41 18 19 2 -9 -1 -22 -7 -28z m-6758 -297 c-4 -33 -26 -151 -50
-260 -13 -63 -28 -169 -33 -235 -5 -66 -11 -127 -14 -135 -3 -8 -10 -53 -16
-100 -6 -47 -17 -139 -24 -205 -8 -66 -19 -140 -25 -165 -5 -25 -13 -81 -16
-125 -7 -97 -21 -217 -40 -345 -8 -52 -21 -158 -30 -235 -16 -155 -19 -175
-39 -325 -8 -58 -19 -148 -25 -200 -6 -52 -16 -124 -21 -160 -5 -36 -12 -90
-15 -120 -3 -30 -12 -100 -20 -155 -8 -55 -24 -179 -35 -275 -12 -96 -25 -191
-30 -210 -4 -19 -11 -75 -15 -125 -3 -49 -15 -151 -26 -225 -30 -198 -38 -264
-49 -375 -5 -55 -18 -165 -30 -245 -11 -80 -27 -192 -35 -250 -7 -58 -18 -134
-23 -170 -6 -36 -16 -110 -22 -165 -19 -166 -61 -407 -76 -444 -17 -41 -11
-51 16 -26 21 19 22 18 65 -5 24 -13 48 -21 52 -16 11 10 -34 46 -58 46 -10 0
-20 3 -22 7 -3 5 8 53 25 108 20 68 31 135 36 209 5 73 11 111 20 114 7 2 12
-5 12 -17 0 -12 -4 -21 -10 -21 -5 0 -10 -9 -10 -20 0 -27 26 -25 44 3 20 30
10 64 -20 71 -26 7 -30 28 -15 69 6 14 12 56 15 93 3 38 12 114 20 169 9 55
16 120 16 145 0 26 4 50 10 56 5 5 12 46 15 89 3 44 9 109 13 144 7 60 9 65
37 74 43 14 58 28 45 41 -5 5 -10 20 -10 32 0 36 -11 54 -32 54 -16 0 -18 5
-13 33 25 140 32 198 34 268 1 44 6 92 12 105 5 14 9 43 9 64 0 38 11 106 31
185 5 22 11 83 13 135 6 138 16 242 26 265 5 11 11 38 14 60 2 22 9 76 15 120
6 44 14 107 17 140 5 54 7 58 20 40 13 -18 14 -17 14 12 0 18 5 35 10 38 8 5
8 11 0 19 -16 20 -25 133 -11 150 6 8 14 37 18 65 5 42 8 49 19 40 20 -16 19
8 -1 27 -9 9 -13 27 -11 47 3 18 5 48 5 67 1 26 4 31 11 20 12 -20 22 -7 26
35 2 25 -1 38 -12 42 -17 6 -14 40 12 151 8 34 13 66 10 70 -3 4 -1 14 5 22 6
11 9 5 10 -20 1 -77 16 -72 16 5 0 44 -2 70 -4 58 -3 -13 -9 -23 -15 -23 -7 0
-8 14 -4 38 3 20 6 52 6 70 0 17 4 32 9 32 6 0 12 -15 14 -32 2 -20 4 -10 5
25 1 36 6 56 12 52 6 -4 10 7 9 27 -1 31 -1 32 -9 8 -4 -14 -9 -18 -10 -10 -8
88 -8 102 3 91 6 -6 24 -11 39 -11 27 0 28 -2 27 -47 0 -49 -5 -77 -33 -216
-9 -42 -18 -132 -21 -200 -3 -67 -12 -153 -20 -192 -21 -101 -44 -282 -38
-303 2 -10 -10 -112 -27 -227 -17 -116 -33 -255 -36 -310 -2 -55 -9 -115 -14
-132 -4 -18 -16 -106 -25 -195 -8 -90 -20 -210 -26 -268 -6 -58 -19 -148 -29
-200 -20 -97 -28 -178 -34 -332 -2 -47 -6 -90 -10 -96 -9 -15 -44 -269 -51
-372 -4 -52 -13 -132 -21 -178 -8 -46 -16 -109 -18 -140 -3 -31 -9 -95 -15
-142 -14 -107 -30 -256 -41 -385 -5 -55 -12 -115 -16 -134 -5 -24 -3 -32 5
-27 17 11 53 85 46 96 -3 5 -3 21 1 34 5 21 10 25 30 20 27 -7 32 3 8 20 -27
20 -30 92 -5 136 12 22 27 76 34 125 7 47 15 83 19 80 4 -4 17 0 30 10 l23 16
-35 -3 c-30 -3 -35 0 -38 20 -2 13 1 28 6 35 5 7 15 46 22 87 7 41 19 80 27
87 13 10 12 16 -7 42 -23 30 -23 34 4 109 10 27 16 78 17 140 0 54 6 115 14
138 8 23 15 81 16 130 2 127 1 124 65 124 30 0 54 -2 54 -5 0 -2 -4 -26 -10
-52 -5 -26 -14 -84 -19 -128 -18 -156 -42 -310 -54 -345 -6 -19 -10 -69 -8
-110 1 -41 -7 -147 -19 -235 -41 -307 -48 -386 -39 -418 13 -47 13 -48 -39
-46 -26 1 -57 -3 -67 -10 -17 -10 -9 -11 45 -9 89 3 94 -1 85 -76 -4 -33 -7
-77 -6 -96 2 -65 -9 -68 -94 -25 -42 20 -88 47 -103 59 -15 12 -39 29 -54 39
-15 9 -52 37 -82 62 -31 25 -60 45 -66 45 -6 0 -26 7 -46 15 -34 14 -34 14
-21 47 22 55 70 315 87 473 11 106 44 357 95 705 13 91 26 201 30 245 5 66 23
193 50 345 2 14 7 59 9 100 3 41 19 167 35 280 16 113 35 250 41 305 6 55 20
161 30 235 11 74 24 180 30 235 5 55 19 161 30 235 11 74 26 196 35 270 8 74
21 180 29 235 9 55 23 169 31 254 9 85 22 191 30 235 7 45 17 113 20 151 4 39
20 162 35 275 16 113 31 230 35 260 20 181 62 402 78 412 20 14 72 5 70 -12z
m974 6 c2 -2 -4 -33 -15 -68 -11 -34 -22 -83 -26 -108 -12 -85 -34 -90 -86
-19 -24 34 -30 52 -30 95 0 85 11 102 67 106 51 3 83 1 90 -6z m111 5 c10 -6
11 -21 3 -72 -6 -35 -11 -87 -11 -115 0 -55 -24 -149 -41 -160 -17 -10 -49 29
-51 62 -2 58 13 269 20 276 4 3 18 8 32 11 14 2 27 5 30 5 3 1 11 -2 18 -7z
m-940 -16 c8 -8 -29 -179 -47 -220 -28 -62 -30 -70 -41 -173 -14 -131 -19
-152 -36 -152 -8 0 -19 -12 -24 -26 -6 -14 -14 -23 -19 -20 -5 3 -12 -2 -15
-11 -13 -33 -24 3 -16 52 5 28 9 75 10 105 1 76 31 161 73 208 l21 22 -23 17
c-22 15 -23 20 -19 103 3 48 9 93 13 100 5 9 24 11 63 6 31 -4 58 -9 60 -11z
m326 9 c19 -7 7 -43 -30 -87 -13 -16 -31 -43 -39 -61 -8 -17 -19 -38 -24 -46
-5 -8 -16 -51 -25 -95 -28 -134 -47 -185 -68 -185 -24 0 -23 -17 2 -30 17 -9
20 -21 20 -70 0 -82 -39 -382 -52 -398 -6 -7 -8 -30 -5 -53 3 -22 0 -68 -5
-102 -6 -34 -12 -118 -13 -187 -1 -76 -8 -157 -19 -205 -10 -44 -21 -138 -26
-210 -5 -71 -19 -188 -31 -260 -12 -71 -23 -168 -25 -215 -5 -108 -32 -353
-44 -405 -5 -22 -14 -116 -20 -210 -6 -93 -18 -217 -26 -275 -8 -58 -19 -139
-25 -180 -19 -144 -21 -152 -53 -163 -36 -12 -76 5 -76 32 0 23 22 40 28 23 2
-7 8 -9 14 -6 7 4 6 9 -2 14 -9 5 -9 26 -1 84 6 43 11 97 11 121 0 40 8 66 43
143 9 18 8 26 -3 33 -12 8 -12 12 -2 16 17 7 15 30 -4 37 -13 5 -15 14 -10 44
3 20 11 64 16 97 6 33 12 85 15 116 2 30 9 69 15 85 13 33 23 98 21 132 -8 98
9 267 36 364 12 42 14 77 9 137 -5 54 -4 87 4 102 7 12 12 37 12 55 0 19 4 36
8 39 4 3 6 23 3 45 -4 25 1 62 12 96 13 42 16 72 11 123 -7 66 -6 69 24 101
16 17 30 36 30 40 0 4 9 10 20 13 19 5 17 9 -19 46 -63 64 -66 74 -32 111 35
39 50 124 26 150 -21 23 -19 33 10 64 18 20 25 38 25 69 0 23 3 52 6 65 5 16
2 22 -9 22 -19 0 -37 29 -37 59 0 29 39 91 58 91 13 0 14 2 4 9 -11 6 -11 17
-3 46 6 25 7 44 1 56 -15 27 -12 58 8 70 14 9 16 22 13 77 -8 130 -6 146 33
209 20 33 44 91 54 130 l17 72 40 4 c22 2 45 4 52 5 6 1 18 -1 27 -4z m323
-10 c3 -8 0 -26 -7 -39 -8 -15 -11 -40 -7 -70 6 -44 6 -45 -14 -35 -11 6 -23
18 -25 25 -3 8 -25 30 -48 49 -39 32 -43 33 -39 12 3 -12 -5 -71 -16 -132 -12
-60 -26 -192 -31 -294 -6 -102 -15 -212 -20 -245 -5 -33 -18 -168 -29 -300
-12 -132 -26 -287 -31 -345 -15 -144 -26 -264 -45 -475 -8 -99 -20 -214 -25
-255 -5 -41 -17 -167 -25 -280 -8 -113 -19 -230 -24 -260 -5 -30 -15 -118 -21
-195 -7 -77 -21 -234 -31 -350 -11 -115 -31 -340 -45 -500 -13 -159 -28 -324
-33 -365 -5 -41 -14 -138 -21 -215 -6 -77 -16 -174 -22 -215 -5 -41 -14 -129
-19 -195 -4 -66 -17 -203 -29 -305 -11 -102 -27 -270 -34 -375 -29 -379 -38
-490 -42 -504 -4 -11 -11 -8 -30 12 -13 15 -61 48 -105 73 -44 26 -83 52 -85
59 -3 7 4 27 15 46 24 41 29 71 40 212 10 129 20 147 77 129 22 -6 44 -7 57
-2 21 8 20 9 -5 9 -15 1 -38 5 -53 11 l-25 10 24 37 c20 31 26 56 32 133 3 52
13 120 21 150 14 52 20 117 43 455 5 77 14 158 19 180 13 46 31 243 36 395 3
57 9 127 15 155 12 59 27 214 40 413 5 78 12 147 15 152 7 11 15 104 39 435 9
121 25 270 36 330 10 61 21 151 25 200 3 50 10 133 15 185 6 52 15 149 20 215
5 66 11 138 14 160 17 129 28 240 31 310 2 44 17 205 33 358 17 163 28 304 25
341 -4 43 1 92 16 157 11 52 25 159 31 239 6 80 13 161 15 180 l5 35 -14 -30
c-20 -40 -43 -150 -56 -260 -5 -49 -19 -137 -30 -195 -13 -66 -18 -122 -14
-152 9 -70 -43 -544 -67 -604 -6 -16 -14 -21 -29 -17 -28 7 -36 27 -45 99 -5
51 -3 69 14 106 24 54 29 125 10 155 -12 20 -11 27 6 59 16 31 19 54 18 131
-2 59 3 109 11 136 8 23 19 66 25 95 9 45 9 56 -5 69 -16 17 -16 31 5 108 6
22 11 62 11 88 0 60 34 164 65 197 13 14 30 43 39 65 9 21 21 42 26 45 5 3 68
6 140 8 111 2 131 0 137 -14z m-477 -6 c0 -7 -17 -50 -37 -95 -39 -87 -55 -99
-86 -65 -18 19 -34 129 -24 156 8 21 147 24 147 4z m1080 -158 c0 -15 -5 -12
-26 11 -19 22 -19 22 4 10 12 -6 22 -16 22 -21z m-1177 -48 c3 -4 -1 -25 -10
-47 -8 -23 -14 -71 -13 -112 1 -41 -5 -85 -13 -105 -8 -19 -18 -70 -22 -113
-4 -46 -16 -96 -27 -118 -10 -21 -22 -62 -25 -90 -6 -48 -5 -51 10 -38 16 12
17 8 17 -43 0 -36 -7 -72 -19 -97 -14 -28 -17 -48 -12 -67 10 -34 -1 -125 -17
-145 -7 -8 -18 -34 -25 -58 -12 -41 -15 -44 -47 -44 -43 0 -50 23 -21 64 12
16 21 38 21 49 0 11 7 38 15 61 13 37 13 43 0 47 -21 8 -19 31 5 64 11 16 23
49 26 74 4 24 13 47 20 50 20 8 17 26 -4 26 -18 0 -42 37 -42 65 0 8 9 34 19
57 11 24 26 65 35 93 13 43 13 51 0 58 -18 10 -18 36 1 74 10 19 15 62 16 118
1 88 15 141 43 164 8 7 21 9 27 5 8 -4 9 -3 5 4 -5 8 0 12 13 12 11 0 22 -3
24 -8z m1346 -52 c30 -20 38 -30 25 -30 -10 1 -35 14 -54 30 -44 39 -28 38 29
0z m-388 -157 c13 -17 13 -17 -6 -3 -11 8 -22 16 -24 17 -2 2 0 3 6 3 6 0 17
-8 24 -17z m5 -48 c9 -8 11 -15 6 -15 -5 0 -15 7 -22 15 -7 8 -9 15 -6 15 4 0
14 -7 22 -15z m-311 -45 c3 -5 2 -10 -4 -10 -5 0 -13 5 -16 10 -3 6 -2 10 4
10 5 0 13 -4 16 -10z m-843 -96 c-11 -22 -20 -42 -20 -47 0 -4 -3 -38 -6 -75
-4 -37 -8 -106 -11 -153 -5 -102 -39 -315 -57 -358 -12 -29 -15 -30 -38 -18
-24 12 -25 17 -22 82 5 137 43 205 59 106 l7 -46 7 50 c5 29 4 54 -2 61 -5 6
-7 19 -3 28 3 9 1 22 -4 29 -7 8 -7 18 -2 27 5 9 5 19 -2 27 -5 7 -8 20 -4 28
3 8 1 15 -4 15 -5 0 -13 -19 -18 -42 l-10 -43 -1 47 c-1 26 4 50 9 53 6 3 10
21 10 40 0 19 4 36 10 40 5 3 12 33 16 66 4 32 11 62 17 66 7 4 8 -6 4 -29 -3
-21 -1 -41 6 -48 9 -10 9 -11 0 -6 -9 5 -13 -1 -13 -21 l0 -28 14 30 c22 47
37 98 31 104 -4 3 -10 -1 -15 -9 -8 -12 -10 -12 -10 -2 0 8 9 16 19 19 11 3
21 17 25 36 4 22 9 28 17 20 8 -8 5 -22 -9 -49z m2307 -383 c16 -10 7 -16 -40
-25 -39 -7 -96 8 -69 17 45 17 90 20 109 8z m-3856 -118 c-7 -2 -19 -2 -25 0
-7 3 -2 5 12 5 14 0 19 -2 13 -5z m2328 -120 c13 -17 13 -17 -6 -3 -11 8 -22
16 -24 17 -2 2 0 3 6 3 6 0 17 -8 24 -17z m552 -60 c0 -68 -26 -122 -49 -102
-8 6 -14 21 -13 33 0 20 1 20 8 1 8 -19 8 -19 19 2 7 12 11 34 11 50 -1 17 -3
21 -6 11 -7 -29 -23 -20 -23 13 0 24 4 30 15 25 11 -4 15 2 15 21 0 21 3 24
12 15 6 -6 11 -37 11 -69z m3047 57 c0 -5 -23 -10 -51 -10 -31 0 -48 4 -44 10
3 6 26 10 51 10 24 0 44 -4 44 -10z m-4329 -98 c-11 -8 -21 -21 -21 -28 0 -8
-4 -14 -10 -14 -21 0 -9 37 15 48 14 6 25 17 26 24 0 9 2 8 6 -1 4 -9 -3 -21
-16 -29z m0 -86 c-5 -22 -13 -72 -16 -111 -8 -88 -33 -254 -47 -320 -7 -27
-12 -99 -13 -160 0 -70 -9 -153 -24 -230 -13 -66 -27 -183 -31 -260 -5 -77
-19 -210 -33 -295 -13 -85 -25 -184 -26 -220 -1 -36 -6 -96 -11 -135 -5 -38
-12 -97 -15 -130 -9 -83 -32 -127 -72 -139 -44 -12 -42 -24 5 -28 l37 -3 3
-54 c2 -30 -4 -100 -12 -155 -8 -56 -18 -126 -21 -157 -9 -79 -24 -94 -87 -90
-16 1 -17 11 -12 99 3 53 12 120 20 148 7 28 15 94 18 146 2 53 7 102 12 109
4 7 11 68 14 134 3 66 11 129 17 140 5 11 11 51 12 88 1 37 9 91 18 120 21 72
30 164 20 211 -5 27 -3 51 7 80 8 22 18 81 21 129 3 49 11 101 16 115 21 53
28 126 17 165 -9 31 -8 44 5 73 12 24 17 61 17 120 0 59 5 95 16 117 12 22 17
58 17 127 0 52 4 106 9 119 5 14 13 65 17 113 5 49 14 95 22 104 8 10 13 25
11 35 -2 9 2 20 8 24 5 3 10 -1 10 -10 0 -34 28 -9 46 40 13 36 17 -11 5 -59z
m293 -33 c-3 -49 -16 -151 -30 -228 -15 -80 -27 -187 -29 -250 -3 -112 -23
-315 -49 -505 -9 -58 -16 -141 -16 -185 0 -44 -11 -156 -25 -248 -14 -92 -27
-220 -30 -285 -3 -64 -9 -151 -15 -192 -14 -108 -38 -342 -45 -435 -9 -131
-11 -136 -75 -141 -64 -5 -75 6 -48 51 13 24 21 65 28 144 5 60 14 119 19 130
6 11 11 29 11 40 0 11 6 24 13 28 7 4 25 29 40 56 l28 47 -45 0 c-58 0 -65 19
-37 103 12 34 25 103 30 154 5 50 15 102 22 115 8 15 12 63 12 133 -1 61 3
115 8 121 5 7 11 61 13 120 2 60 9 123 16 139 6 17 12 71 12 120 0 53 5 100
13 115 15 28 24 144 12 156 -10 11 -9 48 4 81 6 15 13 69 16 118 2 50 11 113
18 140 19 67 22 120 8 136 -8 10 -7 27 3 64 7 28 16 91 20 140 4 50 12 93 18
97 6 4 28 8 48 8 l36 0 -4 -87z m316 57 c8 -5 11 -10 5 -10 -5 0 -17 5 -25 10
-8 5 -10 10 -5 10 6 0 17 -5 25 -10z m475 -17 c104 -22 104 -22 79 -42 -21
-17 -26 -34 -54 -179 -8 -44 -103 -254 -130 -287 -4 -5 -49 -91 -98 -190 -50
-99 -109 -209 -132 -244 l-42 -65 24 -18 23 -18 -32 3 c-18 2 -41 11 -50 19
-10 8 -27 20 -38 26 -19 11 -18 11 6 12 22 0 28 7 39 43 7 23 14 47 16 53 1 6
13 29 28 52 25 40 197 363 261 492 34 68 63 163 74 240 6 42 8 45 40 50 42 6
28 20 -39 39 -25 7 -54 20 -65 28 -20 15 -20 15 0 8 11 -3 52 -13 90 -22z
m-425 -3 c8 -5 11 -10 5 -10 -5 0 -17 5 -25 10 -8 5 -10 10 -5 10 6 0 17 -5
25 -10z m330 -34 c0 -3 -4 -8 -10 -11 -5 -3 -10 -1 -10 4 0 6 5 11 10 11 6 0
10 -2 10 -4z m250 -8 c0 -11 -28 -10 -35 1 -3 6 4 9 15 8 11 -1 20 -5 20 -9z
m3479 -3 c26 -13 91 -84 91 -99 0 -3 -9 -6 -20 -6 -19 0 -70 46 -70 64 0 5
-12 19 -27 32 -31 27 -17 32 26 9z m-303 -51 c64 -42 60 -37 69 -94 l7 -45
-59 58 c-49 48 -94 117 -76 117 2 0 29 -16 59 -36z m-3199 -28 c-15 -31 -22
-25 -13 9 4 14 11 23 15 20 5 -3 4 -16 -2 -29z m-227 -40 c0 -2 -7 -6 -15 -10
-8 -3 -15 -1 -15 4 0 6 7 10 15 10 8 0 15 -2 15 -4z m220 -78 c0 -5 -7 -11
-15 -14 -8 -4 -15 -12 -15 -19 0 -8 -5 -17 -12 -21 -8 -5 -9 0 -4 17 4 13 8
29 8 34 1 12 38 15 38 3z m-402 -75 c5 -18 -23 -16 -39 3 -11 14 -10 15 11 12
13 -1 25 -9 28 -15z m2509 -10 c4 -10 9 -20 12 -23 4 -3 19 -24 34 -47 33 -52
15 -58 -30 -10 -32 33 -53 68 -53 86 0 18 30 12 37 -6z m-3606 -150 c-9 -16
-10 -14 -11 12 0 21 3 26 11 18 8 -8 8 -16 0 -30z m946 -9 c-3 -3 -12 -4 -19
-1 -8 3 -5 6 6 6 11 1 17 -2 13 -5z m45 -13 c13 -5 44 -17 71 -26 26 -9 47
-23 47 -31 0 -22 -23 -17 -85 21 -76 45 -87 57 -33 36z m1931 -87 c3 7 11 5
23 -6 20 -17 107 -56 236 -107 43 -17 106 -52 141 -78 58 -45 132 -83 252
-131 64 -26 74 -48 16 -38 -64 10 -169 57 -215 96 -74 64 -139 91 -331 139
-16 5 -41 11 -55 16 l-25 7 25 -27 c27 -29 144 -88 199 -100 40 -8 153 -60
198 -91 17 -12 69 -33 116 -47 46 -15 99 -38 118 -51 59 -42 142 -83 230 -111
46 -16 89 -31 94 -35 6 -4 27 -10 47 -14 62 -11 188 -109 204 -158 3 -10 9
-18 13 -18 7 0 31 -43 31 -55 0 -3 -10 -5 -22 -6 -13 0 -17 -3 -10 -6 6 -2 12
-11 12 -18 0 -27 47 -41 215 -65 100 -14 125 -20 125 -32 0 -5 -12 -7 -29 -3
-16 3 -74 13 -128 21 -54 9 -120 19 -147 23 -63 10 -190 -9 -344 -50 -145 -39
-242 -58 -259 -52 -20 8 4 33 32 33 12 0 29 7 36 16 12 15 11 16 -10 9 -16 -5
-26 -3 -32 6 -6 11 -11 10 -26 -3 -10 -8 -28 -19 -40 -22 -18 -6 -15 1 16 33
43 45 51 49 51 26 0 -8 7 -15 15 -15 8 0 15 7 15 15 0 8 -7 15 -15 15 -8 0
-15 7 -15 15 0 8 7 15 15 15 17 0 20 25 5 35 -6 3 -13 -2 -17 -12 -9 -22 -95
-111 -131 -135 -32 -21 -63 -25 -44 -6 7 7 12 16 12 20 0 4 -18 -10 -39 -31
-33 -33 -51 -42 -129 -60 -112 -26 -222 -27 -327 -2 -140 34 -394 61 -568 61
-198 0 -296 -22 -496 -110 -110 -48 -174 -52 -74 -5 70 34 82 49 26 33 -53
-14 -69 -24 -145 -84 -121 -97 -172 -220 -173 -411 0 -83 -13 -83 -22 0 -4 43
0 73 17 127 22 68 22 89 1 76 -11 -7 -77 -134 -97 -186 -25 -69 -15 10 17 135
17 66 31 137 31 158 -2 136 263 682 434 898 71 89 277 269 308 269 5 0 23 10
40 23 51 38 86 58 86 50 0 -5 -16 -19 -35 -33 -50 -36 -45 -48 20 -45 38 1 52
-2 45 -9 -13 -13 -13 -26 0 -26 5 0 12 11 16 24 6 24 47 42 87 38 14 -2 17 3
12 20 -4 16 -3 19 3 9 8 -11 13 -10 33 3 16 10 29 12 39 6 9 -5 19 -5 26 1 20
17 25 -7 6 -27 -18 -18 -17 -19 16 -31 32 -11 36 -9 58 14 13 14 24 32 24 39
0 8 11 14 24 14 14 0 27 4 30 8 3 5 28 6 55 2 33 -4 52 -3 54 4z m-173 -24 c0
-5 -9 -14 -20 -20 -11 -6 -18 -16 -14 -22 4 -6 1 -9 -5 -7 -7 3 -12 7 -11 9 8
39 15 50 31 50 11 0 19 -4 19 -10z m2193 -7 c-7 -2 -21 -2 -30 0 -10 3 -4 5
12 5 17 0 24 -2 18 -5z m-481 -174 c86 -127 170 -319 139 -319 -6 0 -11 -10
-11 -22 0 -19 2 -20 10 -8 8 13 10 13 10 -2 0 -9 -4 -19 -9 -22 -5 -4 -5 -20
2 -41 7 -25 16 -35 30 -35 18 0 19 -5 14 -45 -4 -30 -3 -45 4 -45 6 0 8 -7 5
-16 -3 -9 -3 -21 1 -27 4 -7 8 -29 9 -51 3 -47 24 -75 24 -31 0 24 5 19 31
-34 22 -43 43 -69 69 -86 84 -53 180 -167 180 -211 -1 -18 -1 -18 -16 1 -13
18 -14 17 -9 -15 l6 -35 -17 30 c-23 40 -92 116 -145 161 -24 20 -46 40 -47
45 -5 12 21 7 30 -6 4 -5 10 -6 15 -2 4 4 -9 22 -28 40 -20 18 -41 41 -47 52
-16 29 -15 0 3 -41 l14 -35 -29 23 c-16 13 -29 30 -29 38 -1 9 -10 33 -21 55
-11 22 -20 47 -20 57 0 21 -21 68 -30 68 -19 0 -48 124 -32 134 19 12 -32 124
-211 469 -32 62 -31 81 2 48 29 -29 26 -9 -4 27 -14 17 -25 34 -25 38 1 16 74
-71 132 -157z m736 109 c18 -18 16 -23 -25 -62 -36 -34 -63 -46 -63 -27 0 38
16 74 39 86 32 18 34 18 49 3z m-4318 -24 l25 -15 -25 7 c-14 3 -29 10 -34 15
-16 14 6 10 34 -7z m-934 -209 c-4 -61 -16 -70 -16 -13 0 38 5 58 16 58 1 0 1
-20 0 -45z m944 -49 c0 -3 -13 1 -30 7 -16 6 -30 15 -30 19 0 5 14 2 30 -7 17
-9 30 -17 30 -19z m2907 28 c-3 -3 -12 -4 -19 -1 -8 3 -5 6 6 6 11 1 17 -2 13
-5z m1523 -49 c0 -8 -9 -19 -20 -25 -15 -8 -20 -8 -20 3 0 14 19 37 32 37 4 0
8 -7 8 -15z m-340 -37 c16 10 20 10 20 -2 0 -13 -58 -31 -68 -22 -2 3 -1 13 2
23 6 15 8 15 16 3 8 -12 13 -13 30 -2z m-4008 -60 c-9 -9 -12 -7 -12 12 0 19
3 21 12 12 9 -9 9 -15 0 -24z m-2122 -66 c-13 -31 -52 -118 -88 -192 -36 -74
-78 -162 -94 -195 -30 -64 -64 -115 -102 -154 -23 -23 -23 -23 4 58 16 45 50
116 76 159 27 42 81 142 121 222 93 184 95 188 101 172 2 -7 -6 -39 -18 -70z
m5789 -57 c0 -5 -4 -3 -9 5 -5 8 -9 22 -9 30 0 16 17 -16 18 -35z m-3788 -125
c-6 -38 -11 -87 -11 -109 0 -49 -8 -71 -26 -71 -24 0 -27 49 -9 128 10 42 18
83 17 92 0 8 7 35 16 60 l17 45 3 -38 c2 -21 -1 -69 -7 -107z m4286 23 c34
-22 27 -55 -14 -66 -26 -8 -37 -5 -62 12 -75 54 -3 105 76 54z m-4216 -270
l-4 -48 -9 33 c-6 23 -5 38 3 48 6 8 12 14 13 14 1 0 -1 -21 -3 -47z m8 -143
c2 25 19 -7 41 -80 26 -81 34 -125 32 -170 -4 -57 -17 -54 -36 7 -10 32 -25
74 -33 93 -9 19 -18 66 -20 105 -2 49 0 64 6 50 7 -14 10 -15 10 -5z m-65 -12
c-3 -5 -12 -4 -20 3 -19 16 -18 18 6 12 11 -3 17 -9 14 -15z m-2364 -80 c-8
-18 -20 -42 -28 -53 -13 -19 -14 -19 -7 4 14 46 36 93 42 87 3 -3 0 -20 -7
-38z m5609 -143 c-22 -22 -127 -57 -163 -53 l-31 3 35 20 c55 31 92 43 135 44
35 1 38 -1 24 -14z m-3340 -21 c14 -12 -19 -1 -35 12 -18 14 -18 14 6 3 14 -6
27 -13 29 -15z m1213 4 c-8 -8 -9 -15 -1 -25 9 -10 7 -13 -11 -13 -17 0 -21
-4 -17 -20 4 -15 -3 -25 -24 -37 -20 -12 -29 -24 -25 -35 2 -10 -3 -23 -12
-28 -16 -9 -16 -11 1 -24 18 -14 18 -15 -5 -27 -13 -7 -24 -12 -25 -11 -2 1
-14 2 -28 2 -42 0 -28 -17 20 -24 25 -4 45 -11 45 -17 0 -5 1 -12 3 -15 5 -14
-205 -9 -224 4 -29 20 -23 32 15 32 19 0 38 5 41 10 4 6 -8 10 -29 10 -20 0
-36 3 -36 6 0 12 29 34 45 34 11 0 15 7 13 21 -3 22 6 29 107 75 58 26 126 71
133 87 2 4 9 7 15 7 8 0 8 -3 -1 -12z m1376 -26 c28 -28 57 -123 41 -133 -9
-5 -12 -35 -10 -106 3 -130 4 -144 19 -170 6 -12 12 -29 12 -37 0 -9 4 -16 9
-16 4 0 11 -21 15 -46 3 -26 11 -53 17 -60 8 -10 7 -18 -5 -29 -9 -9 -16 -22
-16 -30 0 -7 -11 -20 -25 -29 -14 -9 -25 -24 -25 -34 0 -9 -13 -23 -30 -30
-16 -8 -30 -21 -30 -30 0 -10 -12 -25 -28 -34 -60 -38 -67 -43 -75 -56 -5 -8
-17 -10 -30 -7 -15 4 -18 3 -9 -3 10 -7 10 -11 -2 -21 -11 -9 -15 -9 -18 1 -3
9 -13 6 -33 -10 -15 -12 -30 -21 -32 -18 -5 5 38 79 51 88 6 4 8 10 5 13 -8 7
-198 -208 -240 -271 -17 -24 -35 -44 -40 -44 -18 0 -20 28 -4 60 22 43 9 52
-21 15 -26 -32 -32 -75 -11 -75 6 0 23 -14 37 -32 73 -93 112 -103 257 -63 91
25 130 3 56 -32 -30 -15 -41 -28 -58 -73 -12 -30 -25 -64 -30 -75 -9 -22 -15
-56 -16 -95 -1 -14 -5 -33 -11 -43 -8 -15 -5 -20 11 -24 21 -5 30 -33 10 -33
-5 0 -7 -5 -3 -11 12 -21 41 -150 30 -139 -23 23 -77 9 -201 -55 -108 -56
-134 -65 -179 -65 -61 0 -86 15 -101 61 -6 18 -17 35 -23 37 -18 6 -15 -19 5
-40 19 -22 12 -32 -16 -23 -12 4 -18 12 -14 21 3 7 1 14 -5 14 -6 0 -12 -6
-15 -12 -4 -10 -7 -10 -18 0 -9 9 -10 12 -1 12 7 0 12 7 12 16 0 9 -3 14 -7
12 -8 -4 -47 -21 -93 -42 -14 -6 -54 -40 -90 -76 -64 -64 -65 -66 -67 -125
l-3 -60 30 55 c30 57 40 57 16 -1 -8 -19 -26 -81 -41 -138 -33 -125 -88 -251
-110 -251 -8 0 -15 -6 -15 -12 0 -9 -4 -8 -10 2 -7 12 -13 13 -28 4 -15 -10
-21 -8 -32 10 -8 11 -13 27 -12 33 2 8 -3 10 -12 7 -9 -3 -28 -2 -43 4 -24 8
-31 5 -48 -14 -11 -13 -24 -24 -30 -24 -5 0 -4 5 3 12 20 20 15 40 -8 33 -11
-3 -20 -2 -20 4 0 5 -4 21 -9 35 -9 22 -12 23 -35 13 -28 -13 -35 -37 -11 -37
8 0 16 -9 17 -20 0 -11 1 -25 2 -32 1 -6 -5 -13 -13 -16 -9 -3 -11 1 -6 17 5
17 3 20 -10 15 -13 -5 -16 -2 -13 17 2 15 -2 23 -9 21 -7 -1 -13 7 -13 18 0
11 -6 20 -14 20 -8 0 -16 6 -19 13 -2 6 -2 -1 1 -18 2 -16 8 -34 12 -40 11
-15 23 -72 12 -60 -18 21 -43 105 -40 139 2 19 -1 34 -7 33 -5 -1 -9 -13 -8
-27 3 -30 -42 73 -64 145 -42 141 -99 278 -119 287 -11 5 -29 23 -38 40 -10
16 -21 26 -25 21 -19 -21 40 -369 88 -518 10 -33 27 -96 36 -140 22 -101 77
-249 182 -485 11 -25 24 -54 28 -65 8 -19 9 -18 12 5 2 14 18 72 35 130 17 58
32 111 34 118 8 30 46 -32 147 -240 115 -236 182 -335 361 -533 185 -204 208
-231 226 -266 20 -39 373 -409 568 -596 64 -62 112 -113 106 -113 -5 0 -15 5
-20 10 -10 10 -111 50 -126 50 -19 0 -6 -20 22 -34 17 -9 44 -23 60 -32 17 -8
28 -19 26 -23 -3 -4 -32 -9 -65 -10 -57 -2 -61 -1 -67 24 -5 19 -11 24 -23 19
-51 -21 -98 -9 -256 69 -127 63 -270 127 -282 127 -35 0 292 -168 377 -194 25
-8 59 -20 75 -27 17 -7 36 -11 44 -10 7 1 20 -1 30 -5 13 -5 11 -8 -9 -13 -22
-6 -25 -13 -28 -63 -3 -66 -16 -73 -81 -51 -67 22 -61 7 10 -27 62 -29 69 -30
204 -30 87 1 163 6 200 15 84 21 105 19 105 -5 0 -12 -10 -24 -24 -30 -40 -15
-304 -22 -381 -10 -38 6 -79 10 -90 10 -68 0 -293 74 -423 139 -118 59 -199
118 -317 233 -102 98 -98 90 -145 312 -17 83 -33 152 -37 155 -3 4 -3 -7 0
-24 3 -16 12 -73 21 -125 9 -52 20 -117 25 -145 5 -27 5 -68 1 -90 l-8 -40 -1
39 c-1 38 -51 141 -111 231 -15 22 -42 67 -59 100 -18 33 -43 78 -55 100 -13
23 -36 63 -51 90 -74 133 -99 272 -70 401 20 92 30 114 51 114 11 0 14 6 10
16 -3 9 -6 33 -6 55 0 21 -4 39 -8 39 -5 0 -22 -30 -40 -67 -46 -100 -61 -245
-37 -368 9 -50 20 -103 25 -120 4 -16 11 -50 14 -75 l5 -45 -23 51 c-13 28
-29 55 -35 58 -6 4 -11 16 -11 27 0 23 -28 26 -36 4 -4 -8 -1 -22 6 -30 16
-20 5 -32 -14 -15 -18 14 -97 4 -108 -14 -6 -8 -8 -7 -8 2 0 6 -4 12 -10 12
-5 0 -7 -23 -5 -52 4 -39 3 -46 -4 -28 -5 14 -19 48 -31 75 -32 73 -38 213
-12 282 14 38 17 54 8 63 -8 8 1 22 35 53 85 78 104 94 126 106 49 26 143 112
143 132 0 10 -11 37 -25 59 -36 57 -114 214 -178 361 -31 70 -67 142 -79 161
-13 18 -32 53 -42 76 l-19 43 33 28 34 28 -17 64 c-18 66 -53 285 -63 397 -7
74 -18 125 -68 317 -45 175 -53 248 -32 295 13 29 15 31 16 12 0 -13 4 -21 8
-18 5 3 14 -3 20 -12 72 -105 93 -144 108 -201 22 -83 34 -98 34 -40 0 25 7
71 15 102 20 78 19 146 -5 262 -23 113 -23 108 -10 100 16 -10 12 27 -10 90
-33 96 -44 219 -26 302 14 69 39 123 57 123 4 0 23 -21 41 -47 37 -56 43 -62
83 -89 37 -26 103 -43 174 -46 63 -3 64 -5 82 -103 14 -82 26 -111 48 -121 9
-4 138 -10 286 -13 252 -6 273 -8 312 -29 50 -26 69 -49 32 -38 -58 16 -79 18
-79 7 0 -6 7 -11 15 -11 17 0 19 -18 5 -40 -8 -13 -10 -12 -10 3 0 9 -4 17
-10 17 -5 0 -10 -4 -10 -8 0 -4 -13 -13 -30 -19 -37 -14 -37 -9 -3 35 37 49
16 37 -69 -38 -128 -114 -182 -175 -220 -251 -42 -85 -98 -213 -98 -226 0 -5
-12 -34 -26 -64 -28 -57 -74 -194 -74 -218 0 -11 6 -9 20 7 11 12 20 28 20 35
0 8 7 20 16 28 19 16 34 -2 34 -43 0 -28 13 -37 25 -18 3 5 15 15 25 20 19 10
19 8 14 -52 -6 -71 -8 -72 66 29 19 26 46 58 59 72 38 42 145 182 184 241 20
30 62 118 93 195 31 77 71 163 88 190 37 58 41 68 111 240 28 72 64 171 79
220 15 50 40 124 56 165 16 41 39 107 51 145 32 104 102 246 136 278 58 54
175 75 211 39z m-3146 -93 c-1 -30 -9 -90 -17 -134 -8 -44 -19 -114 -25 -154
-12 -84 -29 -111 -73 -111 -23 0 -28 3 -23 17 4 10 9 63 12 118 3 55 13 132
24 170 11 39 22 82 25 97 5 27 49 60 70 54 6 -1 9 -27 7 -57z m1818 46 c0 -2
-9 -9 -20 -15 -16 -9 -18 -8 -14 5 5 13 34 22 34 10z m-50 -54 c-5 -11 -19
-23 -30 -26 -11 -3 -20 -11 -20 -16 0 -5 -4 -9 -10 -9 -22 0 -8 29 23 49 40
26 51 26 37 2z m2957 -38 c-3 -10 -5 -4 -5 12 0 17 2 24 5 18 2 -7 2 -21 0
-30z m-2977 -33 c0 -5 -5 -10 -11 -10 -5 0 -7 5 -4 10 3 6 8 10 11 10 2 0 4
-4 4 -10z m2058 -39 c14 -9 0 -13 -102 -27 -39 -5 -48 -4 -44 7 3 9 26 16 59
20 30 3 59 6 64 7 6 1 16 -2 23 -7z m-409 -115 c28 -49 49 -91 47 -93 -5 -5
-98 150 -110 182 -13 37 11 2 63 -89z m-2802 68 c-3 -3 -12 -4 -19 -1 -8 3 -5
6 6 6 11 1 17 -2 13 -5z m133 -23 c0 -5 -9 -11 -20 -14 -11 -3 -20 -1 -20 3 0
5 8 11 18 13 9 3 18 5 20 6 1 0 2 -3 2 -8z m306 -40 c17 -10 40 -21 50 -24 16
-4 15 -5 -4 -6 -21 -1 -102 34 -102 44 0 11 27 4 56 -14z m-351 -31 c-20 -23
-29 -21 -19 4 3 9 13 16 22 16 13 0 12 -3 -3 -20z m203 -125 c-21 -177 -17
-162 -44 -157 -28 5 -43 22 -20 22 10 0 13 6 10 15 -4 9 0 15 9 15 21 0 37 72
38 172 1 64 3 74 8 43 4 -23 3 -72 -1 -110z m1807 83 c-31 -61 -63 -98 -119
-139 -74 -55 -71 -29 6 41 42 38 89 90 104 114 38 60 43 50 9 -16z m-3135 -42
c0 -8 -4 -18 -10 -21 -5 -3 -10 3 -10 14 0 12 5 21 10 21 6 0 10 -6 10 -14z
m1881 -19 c-8 -8 -11 -7 -11 4 0 20 13 34 18 19 3 -7 -1 -17 -7 -23z m-924
-53 c-3 -3 -12 -4 -19 -1 -8 3 -5 6 6 6 11 1 17 -2 13 -5z m-566 -36 c2 -69
-4 -151 -16 -213 -28 -141 -35 -194 -50 -378 -14 -176 -22 -211 -52 -245 -7
-7 -13 -19 -13 -27 0 -14 -21 -25 -51 -25 -23 0 -25 31 -5 92 8 24 17 58 20
77 3 19 14 39 23 46 15 11 15 14 -4 41 -30 43 -34 82 -12 120 13 23 21 70 28
161 6 70 17 164 25 208 8 44 15 97 15 117 1 30 5 37 24 41 54 10 67 8 68 -15z
m169 5 c0 -9 -11 -100 -24 -202 -14 -102 -30 -244 -36 -316 -26 -300 -67 -667
-81 -742 -10 -51 -38 -83 -72 -83 -37 0 -38 184 -2 294 14 42 25 88 25 102 0
16 8 28 25 36 32 15 31 20 -8 39 -37 19 -39 38 -12 109 13 33 17 71 16 145 -1
72 3 112 14 138 9 21 20 88 24 150 5 62 14 135 21 162 6 28 11 72 11 98 0 43
3 50 32 67 39 24 67 26 67 3z m580 -34 c0 -5 -9 -9 -20 -9 -22 0 -23 1 -14 24
5 13 9 14 20 5 8 -6 14 -15 14 -20z m30 1 c0 -5 -4 -10 -10 -10 -5 0 -10 5
-10 10 0 6 5 10 10 10 6 0 10 -4 10 -10z m-70 -50 c0 -5 -5 -10 -11 -10 -5 0
-7 5 -4 10 3 6 8 10 11 10 2 0 4 -4 4 -10z m46 -57 c-3 -21 -10 -60 -15 -88
l-10 -50 6 55 c3 30 6 74 7 97 0 24 5 38 10 33 4 -4 6 -26 2 -47z m163 -12
c-1 -17 -3 -20 -6 -8 -2 9 -9 17 -14 17 -5 0 -9 4 -9 8 0 5 7 9 15 9 10 0 15
-9 14 -26z m-45 4 c-4 -8 -8 -15 -10 -15 -2 0 -4 7 -4 15 0 8 4 15 10 15 5 0
7 -7 4 -15z m2616 -35 c6 -11 8 -20 6 -20 -3 0 -10 9 -16 20 -6 11 -8 20 -6
20 3 0 10 -9 16 -20z m-2600 -110 c-9 -21 -9 -33 0 -50 15 -29 8 -34 -37 -25
-21 4 -32 10 -25 12 6 3 10 9 6 14 -3 5 5 9 16 9 16 0 20 4 16 16 -3 8 1 22 9
30 8 9 16 30 16 47 2 32 2 32 6 3 3 -15 -1 -41 -7 -56z m-163 -7 c16 -33 12
-37 -26 -28 -28 6 -45 35 -20 35 5 0 7 5 4 10 -3 6 2 10 12 10 10 0 24 -12 30
-27z m2820 -5 c-3 -8 -6 -5 -6 6 -1 11 2 17 5 13 3 -3 4 -12 1 -19z m-2 -207
c-39 -50 -78 -75 -145 -90 -52 -12 -51 2 1 19 22 8 50 25 62 38 12 13 30 31
40 40 9 9 17 23 17 31 0 7 9 21 19 30 14 12 19 28 17 59 -4 68 8 60 17 -13 8
-66 8 -66 -28 -114z m-2669 111 c22 -15 23 -44 3 -123 -16 -63 -19 -87 -10
-105 8 -19 8 -24 -3 -24 -8 0 -21 -3 -29 -6 -22 -8 -28 21 -12 58 8 18 15 29
15 23 1 -17 30 56 30 76 0 24 -17 25 -22 2 -3 -10 -8 5 -12 34 -10 66 4 90 40
65z m2124 -62 c4 -8 16 -34 28 -57 12 -23 22 -49 22 -57 0 -8 5 -16 11 -18 6
-2 9 -13 7 -23 -3 -15 -11 -5 -31 38 -15 32 -27 61 -27 66 0 5 -20 27 -44 49
-24 22 -42 43 -38 46 8 8 64 -26 72 -44z m1083 21 c66 -45 107 -94 122 -143
21 -72 4 -78 -45 -17 -37 47 -103 140 -124 177 -11 19 2 14 47 -17z m-3372
-157 c-6 -24 -9 -49 -6 -56 7 -19 -8 -38 -35 -43 -22 -4 -23 -4 -16 63 9 91
16 114 31 108 14 -5 24 12 27 47 1 12 3 0 5 -28 3 -27 0 -68 -6 -91z m165 -97
c4 -4 -26 -160 -31 -165 -3 -3 -8 -2 -12 2 -4 3 -1 12 5 18 14 14 15 74 1 103
-9 19 -9 18 -5 -2 5 -26 0 -29 -18 -10 -12 11 -12 19 -1 54 3 9 52 9 61 0z
m-159 -39 c-3 -8 -6 -5 -6 6 -1 11 2 17 5 13 3 -3 4 -12 1 -19z m-22 -81 c-15
-37 -28 -46 -40 -27 -3 6 0 10 9 10 8 0 17 14 21 33 9 41 19 56 23 37 1 -9 -4
-33 -13 -53z m2574 -7 c21 -10 41 -27 45 -36 10 -25 -4 -101 -21 -115 -10 -9
-11 -14 -3 -19 9 -5 8 -13 -1 -28 -10 -17 -10 -23 0 -36 11 -13 11 -19 1 -31
-10 -12 -10 -18 0 -31 11 -13 10 -16 -8 -21 -12 -3 -22 -12 -22 -19 0 -8 -7
-14 -15 -14 -8 0 -15 -4 -15 -9 0 -5 -15 -12 -34 -15 -42 -8 -99 -62 -131
-127 -38 -74 -55 -66 -35 16 6 22 13 67 16 100 3 43 17 85 48 150 24 50 58
120 75 158 17 37 36 67 42 67 6 0 9 7 5 15 -7 20 7 19 53 -5z m-3380 -215
c-32 -305 -27 -286 -79 -301 -24 -7 -46 -11 -48 -9 -2 2 -6 44 -8 95 -4 74 -2
100 14 143 11 29 23 75 27 102 11 88 14 95 38 95 28 0 41 9 56 38 7 13 14 22
15 20 2 -1 -5 -84 -15 -183z m796 155 c4 -6 -5 -10 -19 -10 -14 0 -26 5 -26
10 0 6 9 10 19 10 11 0 23 -4 26 -10z m-1 -55 c19 -14 19 -17 -2 -138 -12 -68
-22 -126 -22 -130 0 -3 -7 -4 -16 0 -12 4 -15 2 -12 -8 3 -8 11 -13 18 -11 10
2 12 -17 7 -83 -5 -88 -20 -126 -33 -90 -5 11 -3 20 4 23 20 6 12 82 -8 82 -5
0 -11 -10 -13 -22 -3 -13 -4 14 -4 60 1 45 4 82 7 82 3 0 5 49 6 109 1 60 4
116 7 125 8 20 36 20 61 1z m141 -55 c3 -5 1 -10 -5 -10 -6 0 -15 -10 -20 -22
-8 -21 -9 -20 -9 10 -1 32 20 45 34 22z m32 -12 c-3 -8 -6 -5 -6 6 -1 11 2 17
5 13 3 -3 4 -12 1 -19z m-16 -101 c-6 -34 -10 -107 -11 -162 0 -55 -4 -116 -8
-135 -11 -43 -3 -200 9 -200 12 0 11 -26 0 -64 -19 -62 -33 -163 -37 -261 -3
-55 -13 -147 -23 -205 -16 -90 -16 -107 -5 -121 12 -14 12 -25 -2 -80 -16 -60
-18 -77 -22 -138 -1 -13 -5 -21 -9 -17 -4 4 -6 22 -5 40 2 23 -2 35 -12 39
-20 8 -29 -8 -22 -39 4 -15 2 -24 -5 -24 -16 0 -6 155 11 175 10 12 8 19 -11
35 l-24 19 24 1 c20 0 21 2 11 15 -10 12 -10 18 0 30 10 13 10 19 -3 33 -13
15 -13 29 -2 122 8 58 18 152 24 210 12 126 23 160 51 160 11 0 20 4 20 9 0
10 -38 24 -57 22 -7 -1 -13 5 -13 14 0 8 4 15 9 15 18 0 35 164 19 185 -4 6 0
42 8 80 8 39 16 90 19 114 2 25 11 49 22 58 13 10 15 16 6 19 -18 8 -16 24 2
24 8 0 16 9 16 20 2 23 2 26 13 65 14 49 19 9 7 -58z m1241 -64 c-3 -16 -7
-22 -10 -15 -4 13 4 42 11 42 2 0 2 -12 -1 -27z m2684 -180 c-41 -191 -49
-241 -43 -269 14 -74 -33 -381 -87 -564 -58 -199 -106 -383 -106 -406 0 -13
-2 -24 -4 -24 -2 0 -38 16 -80 36 -49 23 -92 37 -117 37 l-40 0 6 41 c21 139
54 249 129 440 125 316 140 356 200 546 88 277 86 271 117 282 15 5 31 17 35
26 19 42 14 -35 -10 -145z m-4820 -13 c7 -7 3 -47 -12 -128 -13 -64 -24 -147
-24 -184 0 -43 -4 -68 -11 -68 -10 0 -143 120 -161 145 -9 12 0 26 15 24 39
-5 52 15 17 24 -17 4 -20 14 -20 56 0 67 22 119 52 125 13 3 32 7 43 9 39 9
91 7 101 -3z m2799 -26 c156 -3 239 -9 284 -20 49 -13 87 -15 162 -9 62 4 99
3 99 -3 0 -12 -47 -25 -60 -17 -6 4 -10 1 -10 -4 0 -6 -11 -11 -24 -11 -33 0
-57 -10 -51 -21 3 -4 -4 -18 -15 -29 -16 -16 -19 -25 -10 -35 12 -14 -2 -31
-18 -21 -5 3 -30 -1 -58 -8 -35 -9 -49 -17 -48 -29 1 -12 -6 -17 -22 -17 -29
0 -126 25 -152 39 -16 8 -21 7 -26 -5 -10 -27 -7 -33 22 -36 25 -3 27 -6 24
-43 -2 -22 -8 -43 -14 -46 -6 -4 -7 -12 -3 -19 4 -6 -1 -17 -11 -25 -15 -11
-16 -15 -5 -29 11 -13 11 -19 1 -31 -11 -13 -11 -20 0 -40 7 -14 19 -25 25
-25 26 0 39 -30 28 -60 -10 -28 -10 -28 21 -19 62 18 92 20 181 9 121 -16 135
-22 135 -60 0 -43 18 -37 22 8 l3 37 79 7 c50 5 84 4 92 -3 15 -12 234 -21
234 -9 0 5 -6 11 -12 13 -10 4 -10 6 -1 6 6 1 15 -3 18 -9 3 -5 14 -10 25 -10
19 0 30 -19 30 -51 0 -27 -58 -83 -121 -114 -29 -15 -84 -48 -120 -72 -69 -45
-98 -57 -160 -67 -20 -4 -60 -24 -89 -46 -30 -22 -57 -40 -62 -40 -4 0 -16 -7
-25 -15 -10 -9 -67 -52 -128 -97 -60 -44 -121 -92 -134 -105 -16 -17 -31 -23
-48 -20 -13 2 -26 0 -29 -4 -3 -5 -14 -9 -24 -9 -28 0 -169 78 -220 121 -50
43 -68 34 -24 -12 33 -35 18 -40 -17 -5 -59 58 -70 76 -64 96 7 21 -10 29 -18
8 -2 -7 -8 -9 -13 -5 -5 4 -2 12 6 17 12 8 12 11 -2 27 -8 10 -19 29 -23 43
l-7 25 18 -25 c11 -14 18 -29 16 -33 -1 -5 2 -6 8 -2 6 3 24 -8 41 -25 17 -17
33 -29 35 -28 2 2 -9 28 -23 57 -23 45 -28 51 -35 35 -6 -14 -7 -11 -3 9 3 15
2 33 -2 40 -23 35 -123 375 -123 417 0 23 -4 30 -19 30 -30 0 -34 15 -21 93
15 87 43 181 82 263 24 54 33 63 65 72 21 6 56 9 78 6 22 -3 139 -8 260 -10z
m-2148 -85 c-11 -28 -12 -29 -15 -10 -4 28 5 54 17 47 5 -4 4 -19 -2 -37z m43
12 c0 -16 -3 -44 -7 -62 l-8 -34 -5 40 c-6 47 -1 85 11 85 5 0 9 -13 9 -29z
m88 -34 c-5 -17 -12 -40 -15 -49 -3 -10 -9 -18 -15 -18 -5 0 -4 8 2 19 5 11
10 33 10 49 0 31 8 45 21 37 4 -3 3 -20 -3 -38z m2452 3 c0 -5 -4 -10 -10 -10
-5 0 -10 5 -10 10 0 6 5 10 10 10 6 0 10 -4 10 -10z m-147 -110 c-3 -11 -9
-17 -14 -15 -10 7 -1 35 11 35 5 0 6 -9 3 -20z m-2384 -67 c0 -16 -7 -64 -14
-108 -8 -44 -16 -93 -18 -108 -2 -16 -10 -33 -18 -38 -12 -8 -11 -11 4 -20 9
-5 17 -22 17 -37 0 -41 -25 -164 -39 -190 -11 -21 -13 -21 -37 -6 -24 16 -24
19 -21 119 2 57 8 109 15 117 6 8 7 19 3 27 -11 18 -2 53 17 69 12 9 13 15 4
24 -8 8 -6 16 10 33 20 21 35 76 20 74 -23 -4 -32 4 -32 29 0 37 6 42 52 42
35 0 38 -2 37 -27z m2279 -34 c4 -36 -6 -36 -13 0 -2 11 -7 26 -11 32 -4 7 -1
10 7 7 8 -2 15 -20 17 -39z m-3505 -121 c-2 -73 -10 -180 -18 -238 -20 -150
-52 -417 -65 -545 -6 -60 -16 -139 -22 -175 -6 -36 -14 -92 -18 -125 l-7 -60
-1 54 c-2 46 -4 52 -17 41 -13 -10 -15 -9 -15 9 0 11 -4 21 -9 21 -14 0 -20
37 -8 49 8 8 8 14 0 22 -6 6 -7 25 -2 52 5 23 13 87 18 142 6 55 17 145 25
200 8 55 17 123 19 150 3 28 12 82 20 120 9 39 23 131 32 205 9 74 21 145 26
158 10 25 30 51 40 52 4 0 5 -60 2 -132z m3457 92 c-6 -11 -13 -20 -15 -20 -3
0 -5 9 -5 20 0 11 7 20 15 20 13 0 14 -4 5 -20z m40 -63 c0 -42 -4 -55 -21
-65 -23 -15 -59 -7 -59 13 0 8 12 15 26 17 29 3 54 32 40 45 -5 4 -11 2 -13
-4 -7 -18 -43 -16 -43 2 0 8 9 15 20 15 11 0 23 7 26 15 12 31 24 13 24 -38z
m-3015 13 c4 -6 3 -16 -3 -23 -33 -43 -79 -286 -67 -357 7 -42 -5 -123 -37
-252 -19 -76 -20 -92 -9 -126 11 -33 10 -54 -8 -149 -12 -60 -22 -132 -22
-159 -1 -32 -3 -39 -6 -20 -5 34 -28 60 -44 50 -8 -5 -9 12 -4 62 4 38 8 125
10 193 3 67 11 146 19 175 8 28 20 82 26 121 6 38 15 74 20 80 8 10 17 107 19
213 1 33 20 46 22 15 0 -10 6 2 13 27 7 25 21 62 30 84 9 21 16 47 16 57 0 21
15 25 25 9z m-265 -37 c0 -19 -3 -24 -10 -17 -6 6 -8 18 -4 27 9 24 14 21 14
-10z m789 -39 l24 -25 -29 7 c-50 12 -74 23 -74 34 0 20 55 10 79 -16z m2513
-29 c-4 -22 -25 -33 -23 -12 1 4 1 14 1 22 0 8 6 15 14 15 9 0 12 -8 8 -25z
m-1222 -20 c0 -5 -5 -3 -10 5 -5 8 -10 20 -10 25 0 6 5 3 10 -5 5 -8 10 -19
10 -25z m-1233 19 c-3 -3 -12 -4 -19 -1 -8 3 -5 6 6 6 11 1 17 -2 13 -5z
m3134 -22 c-16 -5 -41 5 -41 17 0 7 10 6 26 -1 15 -7 21 -14 15 -16z m-3214 3
c11 -3 24 -12 27 -20 3 -9 0 -12 -8 -9 -8 3 -17 1 -21 -5 -3 -6 -1 -11 4 -11
14 0 14 -37 0 -116 -9 -53 -14 -63 -32 -66 -20 -3 -19 -7 18 -42 24 -24 32
-36 20 -32 -11 5 -32 9 -48 10 -15 1 -27 6 -26 11 0 6 7 9 15 7 19 -4 18 14
-1 22 -8 3 -15 16 -15 30 0 14 -4 28 -10 31 -14 8 -13 42 2 51 8 5 9 2 5 -10
-4 -10 -4 -22 -1 -28 8 -13 34 58 34 92 0 19 -2 22 -10 10 -15 -24 -22 -4 -15
44 6 37 11 46 24 42 9 -2 26 -7 38 -11z m3320 -121 c-3 -3 -12 -4 -19 -1 -8 3
-5 6 6 6 11 1 17 -2 13 -5z m-4147 -74 c0 -5 -5 -10 -11 -10 -5 0 -7 5 -4 10
3 6 8 10 11 10 2 0 4 -4 4 -10z m46 -37 c-3 -10 -12 -67 -21 -128 -9 -60 -23
-129 -31 -153 -8 -23 -14 -52 -14 -62 0 -14 -7 -20 -21 -20 -11 0 -17 4 -14
10 4 6 1 17 -5 25 -9 11 -8 35 4 106 9 51 16 110 16 130 0 29 5 41 22 50 20
11 20 13 5 24 -25 18 -21 28 5 14 18 -10 24 -9 33 5 13 21 28 21 21 -1z m1034
-47 c0 -3 -4 -8 -10 -11 -5 -3 -10 -1 -10 4 0 6 5 11 10 11 6 0 10 -2 10 -4z
m-122 -15 c9 -5 26 -12 37 -16 18 -6 19 -7 3 -16 -19 -11 -46 -1 -68 25 -14
18 0 22 28 7z m-140 -44 c15 -18 -15 -208 -36 -223 -11 -8 -12 -15 -3 -32 7
-14 8 -23 1 -27 -5 -3 -10 -1 -10 5 0 7 -6 6 -15 -3 -9 -9 -14 -33 -13 -62 0
-25 -5 -52 -11 -58 -6 -6 -11 -19 -11 -29 0 -10 -5 -18 -11 -18 -7 0 -8 7 -4
18 4 9 9 51 12 92 2 41 11 102 18 135 8 33 13 93 11 133 -3 68 -2 73 15 69 11
-3 22 -1 25 4 7 13 20 11 32 -4z m158 -21 c17 -18 18 -27 2 -25 -31 4 -38 -3
-38 -33 -1 -23 -3 -29 -9 -18 -5 8 -6 32 -4 53 6 40 23 48 49 23z m23 -118
c-5 -24 -11 -60 -15 -81 -4 -22 -10 -34 -14 -27 -9 15 21 150 34 150 2 0 0
-19 -5 -42z m-2201 -72 l42 -73 83 -23 c45 -12 91 -26 102 -30 11 -5 44 -11
73 -14 28 -3 60 -10 70 -16 23 -14 -62 -6 -230 21 -69 11 -150 21 -179 22 -33
1 -54 7 -57 15 -3 9 3 11 22 6 37 -9 62 2 46 21 -6 7 -17 12 -24 9 -9 -3 -13
4 -13 23 1 15 -3 46 -7 68 -5 29 -5 36 3 25 9 -13 11 -13 11 3 0 31 14 17 58
-57z m578 -86 c-14 -86 -28 -116 -48 -104 -4 3 3 26 16 52 13 26 27 74 31 107
4 33 10 55 12 49 2 -7 -3 -53 -11 -104z m610 -4 c3 -7 -2 -65 -11 -127 -9 -63
-19 -132 -21 -154 -7 -48 -20 -59 -45 -34 -22 22 -23 36 -8 196 13 127 14 129
62 132 10 0 20 -5 23 -13z m2984 4 c0 -5 -2 -10 -4 -10 -3 0 -8 5 -11 10 -3 6
-1 10 4 10 6 0 11 -4 11 -10z m-2197 -37 c-4 -9 -2 -14 3 -10 6 3 5 -26 -3
-71 -19 -124 -33 -171 -53 -182 -22 -12 -29 2 -23 48 6 36 23 44 24 10 1 -46
30 87 33 156 5 84 4 79 16 71 5 -3 6 -13 3 -22z m142 -23 c3 -11 14 -20 23
-20 12 0 13 -3 4 -12 -9 -9 -16 -7 -32 7 -21 19 -27 45 -11 45 5 0 13 -9 16
-20z m4470 -250 c10 -11 15 -20 11 -20 -14 0 -46 21 -46 30 0 16 16 11 35 -10z
m-4660 -20 c-3 -5 -10 -10 -16 -10 -5 0 -9 5 -9 10 0 6 7 10 16 10 8 0 12 -4
9 -10z m4682 -32 c-3 -8 -6 -5 -6 6 -1 11 2 17 5 13 3 -3 4 -12 1 -19z m-5302
-60 c-13 -30 -14 -31 -14 -8 -1 14 2 36 6 49 5 19 8 20 14 8 6 -9 3 -28 -6
-49z m-772 -45 c-5 -113 -33 -280 -48 -293 -7 -6 -30 -3 -66 11 -83 32 -87 37
-77 115 5 37 17 83 26 103 16 34 20 36 70 39 51 3 52 4 72 47 11 24 20 49 20
54 0 6 2 11 4 11 2 0 2 -39 -1 -87z m827 45 c0 -21 -3 -29 -10 -22 -5 5 -7 19
-4 32 9 31 14 27 14 -10z m5300 -18 c6 -11 8 -20 6 -20 -3 0 -10 9 -16 20 -6
11 -8 20 -6 20 3 0 10 -9 16 -20z m-5753 -32 c-3 -8 -6 -5 -6 6 -1 11 2 17 5
13 3 -3 4 -12 1 -19z m436 0 c3 -13 4 -34 2 -48 -2 -14 -4 -45 -4 -70 -2 -54
-16 -83 -30 -60 -7 10 -6 17 2 22 9 5 9 10 -1 20 -17 17 -15 28 4 28 13 0 15
11 12 65 -3 64 5 87 15 43z m-43 -2 c0 -3 -4 -8 -10 -11 -5 -3 -10 -1 -10 4 0
6 5 11 10 11 6 0 10 -2 10 -4z m-403 -63 c-3 -10 -5 -2 -5 17 0 19 2 27 5 18
2 -10 2 -26 0 -35z m6664 -60 c15 -9 33 -28 39 -42 6 -15 23 -44 39 -66 41
-55 94 -165 124 -255 72 -217 119 -378 132 -450 l4 -25 -12 25 c-6 14 -14 27
-18 30 -4 3 -9 14 -12 25 -3 11 -4 -2 -1 -30 l4 -50 -25 55 c-15 30 -41 105
-60 165 -137 450 -175 545 -235 600 -37 34 -25 45 21 18z m-746 -3 c3 -5 2
-10 -4 -10 -5 0 -13 5 -16 10 -3 6 -2 10 4 10 5 0 13 -4 16 -10z m-5535 -36
c0 -2 -7 -4 -15 -4 -8 0 -15 4 -15 10 0 5 7 7 15 4 8 -4 15 -8 15 -10z m275
-4 c3 -5 1 -10 -4 -10 -6 0 -11 5 -11 10 0 6 2 10 4 10 3 0 8 -4 11 -10z
m5399 -120 c57 -65 126 -163 144 -205 l13 -30 -30 29 c-17 16 -28 33 -25 37 2
4 -5 10 -15 14 -21 6 -106 95 -153 159 -21 29 -25 42 -16 47 9 6 9 12 -3 26
-9 10 -19 27 -23 38 -4 11 8 2 26 -20 18 -22 55 -64 82 -95z m-3867 28 c-3 -8
-6 -5 -6 6 -1 11 2 17 5 13 3 -3 4 -12 1 -19z m283 -73 c0 -5 -5 -3 -10 5 -5
8 -10 20 -10 25 0 6 5 3 10 -5 5 -8 10 -19 10 -25z m3747 -217 c-3 -8 -6 -5
-6 6 -1 11 2 17 5 13 3 -3 4 -12 1 -19z m-3867 -67 c-1 -10 -6 -7 -15 9 -19
33 -18 50 0 26 8 -11 15 -27 15 -35z m1400 6 c0 -5 -13 1 -30 13 -16 12 -30
24 -30 26 0 3 14 -3 30 -13 17 -9 30 -21 30 -26z m-1370 -55 c0 -15 -2 -15
-10 -2 -13 20 -13 33 0 25 6 -3 10 -14 10 -23z m23 -49 c5 -26 4 -26 -9 -8
-16 22 -18 35 -5 35 5 0 11 -12 14 -27z m3894 -5 c-3 -8 -6 -5 -6 6 -1 11 2
17 5 13 3 -3 4 -12 1 -19z m-3767 -38 c0 -11 -4 -20 -10 -20 -5 0 -10 9 -10
20 0 11 5 20 10 20 6 0 10 -9 10 -20z m46 -21 c14 -29 14 -33 0 -47 -11 -12
-16 -13 -16 -3 0 8 -7 10 -21 6 -18 -6 -20 -5 -10 14 7 12 16 21 20 21 5 0 7
9 4 20 -8 30 4 24 23 -11z m-436 -9 c0 -5 -2 -10 -4 -10 -3 0 -8 5 -11 10 -3
6 -1 10 4 10 6 0 11 -4 11 -10z m354 -12 c10 -40 6 -54 -9 -28 -8 14 -14 31
-15 38 0 21 17 13 24 -10z m206 -142 c0 -3 -4 -8 -10 -11 -5 -3 -10 -1 -10 4
0 6 5 11 10 11 6 0 10 -2 10 -4z m-140 -32 c0 -8 -4 -12 -10 -9 -5 3 -10 10
-10 16 0 5 5 9 10 9 6 0 10 -7 10 -16z m10 -34 c0 -5 -5 -10 -11 -10 -5 0 -7
5 -4 10 3 6 8 10 11 10 2 0 4 -4 4 -10z m1830 -31 c0 -5 -12 -11 -27 -15 -16
-3 -35 -8 -43 -11 -8 -3 -39 -11 -69 -19 -30 -8 -61 -20 -68 -25 -15 -13 -46
-4 -41 13 4 10 30 19 178 62 45 13 70 11 70 -5z m-676 -24 c3 -9 0 -15 -9 -15
-9 0 -12 6 -9 15 4 8 7 15 9 15 2 0 5 -7 9 -15z m-1104 -49 c0 -12 5 -16 15
-12 8 3 15 1 15 -3 0 -9 -30 -24 -36 -19 -1 2 -5 21 -9 43 -5 30 -4 36 4 25 6
-8 11 -23 11 -34z m5100 -148 c0 -7 -9 -24 -20 -38 l-20 -25 10 29 c17 46 30
61 30 34z m-2989 -88 c31 -17 23 -27 -43 -58 -73 -34 -225 -67 -272 -58 -25 5
-42 0 -80 -24 -26 -17 -82 -40 -124 -51 -42 -12 -103 -35 -136 -51 -62 -31
-156 -56 -246 -65 -66 -6 -59 7 15 31 28 9 74 32 103 51 29 19 74 41 100 49
104 33 292 76 331 76 25 0 62 10 94 26 53 27 201 82 225 83 7 1 22 -4 33 -9z
m-1378 -89 c108 -53 200 -92 227 -96 25 -3 120 1 213 9 196 19 197 19 197 7 0
-14 -50 -30 -128 -41 -41 -6 -115 -22 -165 -37 -78 -23 -111 -27 -219 -28
l-126 0 -134 67 c-73 37 -148 71 -165 74 -18 4 -33 11 -33 16 0 17 49 58 70
58 25 0 39 29 20 40 -9 6 -2 10 21 13 19 2 35 5 37 5 1 1 84 -38 185 -87z
m-593 69 c0 -5 -4 -10 -10 -10 -5 0 -10 5 -10 10 0 6 5 10 10 10 6 0 10 -4 10
-10z m4430 -320 c12 -23 12 -24 -3 -11 -10 7 -17 20 -17 29 0 18 3 16 20 -18z"/>
<path d="M8425 8970 c-3 -5 -1 -10 4 -10 6 0 11 5 11 10 0 6 -2 10 -4 10 -3 0
-8 -4 -11 -10z"/>
<path d="M1660 7380 c0 -5 5 -10 10 -10 6 0 10 5 10 10 0 6 -4 10 -10 10 -5 0
-10 -4 -10 -10z"/>
<path d="M1662 7255 c0 -16 2 -22 5 -12 2 9 2 23 0 30 -3 6 -5 -1 -5 -18z"/>
<path d="M1560 6575 c0 -5 5 -17 10 -25 5 -8 10 -10 10 -5 0 6 -5 17 -10 25
-5 8 -10 11 -10 5z"/>
<path d="M1510 6255 c0 -8 4 -15 10 -15 5 0 7 7 4 15 -4 8 -8 15 -10 15 -2 0
-4 -7 -4 -15z"/>
<path d="M1460 5880 c0 -5 5 -10 11 -10 5 0 7 5 4 10 -3 6 -8 10 -11 10 -2 0
-4 -4 -4 -10z"/>
<path d="M1456 5814 c4 -24 3 -39 -6 -44 -8 -5 -7 -9 6 -14 10 -4 15 -4 12 0
-4 4 -1 16 7 26 10 16 11 26 3 44 -17 36 -30 29 -22 -12z"/>
<path d="M1391 5283 c-1 -22 30 -40 49 -28 18 11 10 25 -14 25 -13 0 -27 6
-29 13 -3 6 -6 2 -6 -10z"/>
<path d="M1692 7625 c0 -16 2 -22 5 -12 2 9 2 23 0 30 -3 6 -5 -1 -5 -18z"/>
<path d="M1686 7582 c-2 -4 -1 -14 5 -22 7 -12 9 -10 9 8 0 23 -5 28 -14 14z"/>
<path d="M1690 7532 c0 -8 -5 -10 -12 -6 -8 5 -7 0 2 -11 11 -14 12 -19 3 -22
-15 -5 -17 -33 -3 -33 17 0 31 49 20 68 -6 11 -9 12 -10 4z"/>
<path d="M3692 6388 c-40 -39 -72 -78 -72 -85 0 -8 -6 -16 -14 -19 -8 -3 -12
-12 -9 -20 4 -10 0 -12 -12 -7 -15 5 -17 2 -11 -21 4 -16 2 -34 -4 -41 -16
-19 -26 -155 -11 -155 6 0 11 4 11 9 0 5 6 16 13 23 7 7 18 24 25 38 29 54 47
85 52 85 15 2 47 40 43 51 -3 8 -1 14 5 14 12 0 126 140 115 141 -4 1 -12 1
-17 0 -5 -1 -17 6 -28 16 -18 16 -18 18 -2 30 15 11 15 13 3 13 -9 0 -48 -32
-87 -72z"/>
<path d="M3516 6174 c-21 -36 -35 -68 -31 -72 3 -4 13 2 20 13 8 11 18 25 22
30 19 24 35 64 31 78 -2 10 -18 -9 -42 -49z"/>
<path d="M5278 5949 c-22 -12 -24 -49 -3 -49 17 0 28 21 23 44 -2 11 -7 12
-20 5z"/>
<path d="M5292 5878 c7 -19 38 -22 38 -4 0 10 -9 16 -21 16 -12 0 -19 -5 -17
-12z"/>
<path d="M5288 5833 c7 -3 16 -2 19 1 4 3 -2 6 -13 5 -11 0 -14 -3 -6 -6z"/>
<path d="M5105 5770 c-3 -5 -1 -10 4 -10 6 0 11 5 11 10 0 6 -2 10 -4 10 -3 0
-8 -4 -11 -10z"/>
<path d="M3187 5551 c-4 -17 -3 -21 5 -13 5 5 8 16 6 23 -3 8 -7 3 -11 -10z"/>
<path d="M3150 5478 c-12 -22 -12 -22 6 -6 10 10 15 20 12 24 -4 3 -12 -5 -18
-18z"/>
<path d="M6155 6050 c-3 -5 -1 -10 4 -10 6 0 11 5 11 10 0 6 -2 10 -4 10 -3 0
-8 -4 -11 -10z"/>
<path d="M6365 5670 c-3 -5 -1 -10 4 -10 6 0 11 5 11 10 0 6 -2 10 -4 10 -3 0
-8 -4 -11 -10z"/>
<path d="M6396 5647 c3 -10 9 -15 12 -12 3 3 0 11 -7 18 -10 9 -11 8 -5 -6z"/>
<path d="M6420 5622 c0 -7 5 -12 10 -12 6 0 10 -5 10 -11 0 -14 41 -51 48 -44
3 2 -12 21 -32 42 -20 21 -36 32 -36 25z"/>
<path d="M3340 5089 c0 -5 5 -7 10 -4 6 3 10 8 10 11 0 2 -4 4 -10 4 -5 0 -10
-5 -10 -11z"/>
<path d="M3187 3645 c3 -22 7 -42 9 -44 8 -9 2 45 -6 64 -7 14 -8 8 -3 -20z"/>
<path d="M3866 3468 c-19 -30 -31 -104 -18 -112 6 -3 15 16 22 47 7 28 17 60
22 70 13 26 -9 21 -26 -5z"/>
<path d="M3351 3114 c0 -11 3 -14 6 -6 3 7 2 16 -1 19 -3 4 -6 -2 -5 -13z"/>
<path d="M3460 3040 c-13 -8 -12 -10 3 -10 9 0 17 5 17 10 0 12 -1 12 -20 0z"/>
<path d="M3737 3004 c-4 -4 -7 -18 -7 -31 0 -16 6 -23 20 -23 11 0 20 6 20 13
0 19 -24 49 -33 41z"/>
<path d="M3760 2925 c0 -8 5 -15 10 -15 6 0 10 7 10 15 0 8 -4 15 -10 15 -5 0
-10 -7 -10 -15z"/>
<path d="M3880 1830 c6 -10 18 -24 28 -29 9 -6 13 -11 7 -11 -5 0 8 -17 30
-36 22 -20 32 -34 23 -30 -28 9 -22 -3 35 -68 67 -78 120 -126 166 -151 20
-11 52 -32 72 -47 80 -62 54 -21 -63 96 -68 69 -160 163 -206 210 -81 84 -114
107 -92 66z m217 -219 c40 -41 70 -77 67 -80 -3 -3 -21 10 -40 29 -85 86 -120
123 -128 138 -9 15 -8 16 10 3 10 -8 52 -49 91 -90z"/>
<path d="M2631 4684 c0 -11 3 -14 6 -6 3 7 2 16 -1 19 -3 4 -6 -2 -5 -13z"/>
<path d="M2583 4314 c-9 -25 13 -40 26 -16 10 19 6 32 -11 32 -5 0 -11 -7 -15
-16z"/>
<path d="M2355 3700 c-3 -5 -1 -18 4 -27 9 -16 10 -14 11 10 0 28 -5 34 -15
17z"/>
<path d="M2372 3475 c0 -16 2 -22 5 -12 2 9 2 23 0 30 -3 6 -5 -1 -5 -18z"/>
<path d="M4380 3321 c0 -6 7 -11 16 -11 8 0 30 -11 48 -25 18 -14 36 -25 40
-25 4 0 22 -11 39 -24 21 -16 37 -22 46 -17 19 12 5 31 -22 31 -12 0 -28 9
-35 20 -18 30 -132 74 -132 51z"/>
<path d="M4561 3296 c-17 -9 -20 -15 -11 -21 7 -4 19 0 28 9 21 21 12 27 -17
12z"/>
<path d="M4661 3296 c-7 -8 -8 -17 -3 -20 6 -3 15 1 21 8 7 8 8 17 3 20 -6 3
-15 -1 -21 -8z"/>
<path d="M4838 3283 c7 -3 16 -2 19 1 4 3 -2 6 -13 5 -11 0 -14 -3 -6 -6z"/>
<path d="M4780 3240 c-12 -7 -12 -12 -3 -21 15 -15 26 -7 21 15 -2 11 -7 13
-18 6z"/>
<path d="M4651 3228 c-1 -10 -5 -18 -11 -18 -5 0 -10 -5 -10 -12 0 -8 6 -7 16
4 9 9 14 22 11 30 -4 9 -6 7 -6 -4z"/>
<path d="M4500 2976 c0 -8 5 -18 10 -21 6 -3 10 3 10 14 0 12 -4 21 -10 21 -5
0 -10 -6 -10 -14z"/>
<path d="M4930 2679 c0 -5 5 -7 10 -4 6 3 10 8 10 11 0 2 -4 4 -10 4 -5 0 -10
-5 -10 -11z"/>
<path d="M4180 2331 c0 -5 5 -13 10 -16 6 -3 10 -2 10 4 0 5 -4 13 -10 16 -5
3 -10 2 -10 -4z"/>
<path d="M4532 2248 c-18 -16 -31 -32 -29 -35 3 -2 20 10 38 26 18 17 31 33
28 35 -3 3 -19 -9 -37 -26z"/>
<path d="M2340 3079 c0 -5 5 -7 10 -4 6 3 10 8 10 11 0 2 -4 4 -10 4 -5 0 -10
-5 -10 -11z"/>
<path d="M2111 2704 c0 -11 3 -14 6 -6 3 7 2 16 -1 19 -3 4 -6 -2 -5 -13z"/>
<path d="M57 2310 c3 -11 9 -20 15 -20 5 0 4 9 -2 20 -6 11 -12 20 -14 20 -2
0 -2 -9 1 -20z"/>
<path d="M7882 1095 c0 -16 2 -22 5 -12 2 9 2 23 0 30 -3 6 -5 -1 -5 -18z"/>
<path d="M6990 1491 c0 -5 5 -13 10 -16 6 -3 10 -2 10 4 0 5 -4 13 -10 16 -5
3 -10 2 -10 -4z"/>
<path d="M4213 9593 c15 -2 37 -2 50 0 12 2 0 4 -28 4 -27 0 -38 -2 -22 -4z"/>
<path d="M9530 9591 c0 -4 9 -20 20 -34 18 -22 20 -43 23 -179 2 -95 7 -161
15 -173 9 -16 11 23 12 188 0 145 -3 207 -11 207 -6 0 -9 -7 -6 -15 4 -8 2
-17 -3 -20 -5 -3 -11 4 -15 15 -6 19 -35 29 -35 11z"/>
<path d="M5868 9139 c-10 -17 -18 -42 -18 -55 0 -14 -5 -45 -11 -70 -6 -25 -9
-48 -5 -51 8 -8 16 0 21 23 15 66 23 92 33 111 13 24 16 73 5 73 -5 0 -16 -14
-25 -31z"/>
<path d="M5170 9145 c7 -8 18 -15 24 -15 15 -1 71 -52 79 -73 4 -10 -1 -61 -9
-115 -19 -119 -26 -220 -17 -236 4 -6 6 -52 5 -102 -3 -89 10 -190 44 -335 18
-76 13 -94 -49 -189 -24 -35 -33 -56 -26 -61 8 -5 8 -8 0 -13 -34 -22 26 -54
117 -62 34 -3 68 -13 84 -24 15 -11 41 -20 57 -20 17 0 41 -5 55 -11 32 -15
124 -3 107 14 -6 6 -11 31 -11 54 l0 44 27 -25 c35 -33 43 -24 14 15 -24 32
-50 119 -55 184 -2 22 -11 76 -20 120 -12 58 -17 135 -17 280 0 181 1 200 18
213 10 7 27 10 38 6 11 -4 198 -8 415 -10 376 -3 496 -8 830 -36 182 -15 285
-14 379 2 107 18 200 16 341 -8 110 -19 164 -22 440 -22 173 0 362 -4 420 -9
58 -6 209 -12 335 -15 398 -10 717 -28 754 -42 18 -8 37 -14 42 -14 5 0 9 52
9 115 0 122 -5 132 -43 91 -20 -21 -31 -24 -85 -22 -34 1 -72 -4 -84 -10 -15
-8 -30 -9 -47 -2 -14 5 -111 8 -216 7 -104 -2 -200 1 -212 5 l-23 7 25 33 c13
17 36 58 50 89 15 31 30 57 35 57 19 0 28 -84 10 -95 -5 -3 -10 -13 -10 -22 0
-12 3 -13 15 -3 9 7 26 9 47 5 30 -6 31 -6 14 7 -21 16 -56 101 -56 136 0 21
-4 23 -37 20 -33 -3 -38 -7 -44 -34 -3 -18 -21 -62 -40 -100 -26 -50 -42 -70
-65 -80 -23 -10 -95 -13 -272 -12 -132 0 -244 3 -249 7 -5 3 -24 27 -43 53
-18 27 -36 46 -38 43 -3 -3 1 -13 9 -22 33 -42 50 -81 37 -90 -13 -8 -647 -5
-660 3 -5 3 -74 9 -155 13 -109 6 -157 5 -183 -4 -19 -7 -51 -11 -70 -10 -19
2 -129 6 -245 9 -115 4 -289 11 -385 16 -96 5 -328 12 -515 15 -411 6 -584 18
-623 42 -15 9 -48 37 -74 62 -42 39 -48 51 -48 85 0 37 1 39 16 25 8 -9 17
-29 19 -44 1 -15 9 -31 16 -36 8 -4 25 -17 38 -28 30 -26 76 -20 103 12 22 25
23 44 2 26 -14 -11 -18 -10 -30 6 -14 18 -14 18 -34 -3 -21 -22 -47 -31 -35
-12 3 6 -1 10 -9 10 -9 0 -16 5 -16 10 0 6 6 10 13 9 6 -1 25 3 41 10 20 8 32
8 41 1 9 -8 17 -7 27 3 12 12 17 13 33 1 24 -18 35 -18 35 1 0 9 -8 19 -17 22
-10 4 -23 14 -30 22 -11 14 -12 14 -13 -2 0 -12 -6 -17 -17 -15 -31 6 -24 25
17 43 22 10 38 20 35 23 -10 11 -171 12 -217 2 -35 -7 -60 -6 -103 5 -71 19
-81 19 -65 0z m205 -55 c3 -5 1 -10 -4 -10 -6 0 -11 5 -11 10 0 6 2 10 4 10 3
0 8 -4 11 -10z m75 -6 c0 -8 -4 -12 -10 -9 -5 3 -10 10 -10 16 0 5 5 9 10 9 6
0 10 -7 10 -16z m-135 -1076 c34 -15 32 -35 -5 -40 -20 -3 -30 0 -30 8 0 8 -6
11 -15 8 -9 -4 -15 0 -15 9 0 14 13 24 32 26 4 1 19 -4 33 -11z"/>
<path d="M5640 9145 c0 -8 5 -15 10 -15 6 0 10 7 10 15 0 8 -4 15 -10 15 -5 0
-10 -7 -10 -15z"/>
<path d="M7396 9118 c-18 -29 -66 -226 -59 -244 9 -23 21 -6 28 39 8 48 52
176 67 194 10 13 3 33 -12 33 -5 0 -16 -10 -24 -22z"/>
<path d="M6231 9121 c-7 -5 -9 -11 -5 -14 14 -8 64 4 58 14 -7 11 -35 11 -53
0z"/>
<path d="M6320 9120 c0 -5 5 -10 11 -10 5 0 7 5 4 10 -3 6 -8 10 -11 10 -2 0
-4 -4 -4 -10z"/>
<path d="M6693 9123 c-14 -5 -18 -43 -5 -43 4 0 16 7 26 15 11 8 28 15 38 15
10 0 18 5 18 10 0 10 -55 13 -77 3z"/>
<path d="M6915 9120 c-67 -7 -66 -7 33 -7 56 0 105 3 108 8 6 10 -31 9 -141
-1z"/>
<path d="M7085 9120 c-11 -17 5 -32 20 -20 8 7 27 11 42 10 41 -3 50 0 28 10
-28 12 -83 12 -90 0z"/>
<path d="M9560 9114 c-32 -12 -33 -13 -9 -13 15 -1 32 6 39 14 7 8 11 14 9 14
-2 -1 -20 -7 -39 -15z"/>
<path d="M5615 9110 c3 -5 8 -10 11 -10 2 0 4 5 4 10 0 6 -5 10 -11 10 -5 0
-7 -4 -4 -10z"/>
<path d="M6425 9110 c8 -13 75 -13 95 0 11 7 -2 10 -43 10 -36 0 -56 -4 -52
-10z"/>
<path d="M7208 9103 c7 -3 16 -2 19 1 4 3 -2 6 -13 5 -11 0 -14 -3 -6 -6z"/>
<path d="M7610 9074 c-16 -25 -19 -39 -12 -46 8 -8 17 -1 31 23 23 38 25 45
12 53 -5 4 -19 -10 -31 -30z"/>
<path d="M8120 9095 c0 -2 9 -9 20 -15 16 -9 18 -8 14 5 -5 13 -34 22 -34 10z"/>
<path d="M8870 9055 c7 -8 21 -15 31 -15 11 0 19 7 19 15 0 10 -10 15 -31 15
-27 0 -30 -2 -19 -15z"/>
<path d="M9530 9037 c0 -4 27 -63 39 -86 17 -33 31 -22 31 24 0 28 -4 44 -10
40 -6 -3 -13 1 -16 9 -5 13 -44 24 -44 13z"/>
<path d="M8181 9020 c0 -8 6 -24 14 -34 19 -25 19 -9 0 24 -8 14 -14 19 -14
10z"/>
<path d="M9107 9023 c-10 -9 -9 -42 3 -84 14 -50 59 -65 210 -74 36 -2 81 -7
100 -11 19 -4 39 -6 45 -5 12 3 54 8 78 10 17 1 17 4 -5 43 -36 64 -81 108
-112 108 l-27 0 25 -22 c16 -15 28 -38 32 -64 5 -37 4 -43 -15 -49 -34 -11
-56 10 -69 65 -7 29 -10 56 -7 60 7 11 -61 33 -75 25 -6 -4 -7 -13 -1 -23 5
-9 12 -38 15 -65 6 -39 4 -48 -10 -54 -24 -9 -62 38 -70 87 -4 24 -13 41 -23
44 -40 11 -88 16 -94 9z m93 -53 c0 -5 -4 -10 -10 -10 -5 0 -10 5 -10 10 0 6
5 10 10 10 6 0 10 -4 10 -10z"/>
<path d="M8781 8989 c8 -11 27 -28 42 -37 24 -15 29 -15 37 -2 5 8 10 25 10
38 0 20 -5 22 -51 22 -50 0 -51 -1 -38 -21z"/>
<path d="M5540 8990 c0 -5 7 -10 15 -10 8 0 15 5 15 10 0 6 -7 10 -15 10 -8 0
-15 -4 -15 -10z"/>
<path d="M5520 8952 c0 -5 -11 -7 -24 -5 -13 3 -32 1 -41 -4 -14 -8 -12 -12
18 -26 40 -19 73 -22 82 -7 3 6 1 10 -4 10 -6 0 -11 6 -11 14 0 8 -4 18 -10
21 -5 3 -10 2 -10 -3z"/>
<path d="M5565 8940 c-3 -5 -1 -10 4 -10 6 0 11 5 11 10 0 6 -2 10 -4 10 -3 0
-8 -4 -11 -10z"/>
<path d="M7567 8933 c-10 -9 -8 -33 2 -33 5 0 11 9 14 20 5 20 -3 26 -16 13z"/>
<path d="M5680 8059 c-1 -31 87 -132 198 -229 68 -59 82 -68 82 -51 0 5 -38
42 -84 81 -74 62 -109 98 -178 184 -10 11 -18 18 -18 15z"/>
<path d="M5323 7933 c-18 -6 -16 -23 1 -23 17 0 30 16 19 23 -5 2 -14 2 -20 0z"/>
<path d="M8373 7920 c-13 -5 -23 -12 -23 -15 0 -13 25 -52 71 -111 43 -56 77
-132 61 -135 -19 -3 84 -21 172 -30 70 -8 102 -7 109 0 8 8 -13 11 -73 12
-169 1 -188 27 -121 165 21 45 43 84 48 87 4 3 24 8 43 11 58 10 76 -13 114
-147 19 -65 35 -119 37 -121 2 -2 15 -7 27 -11 23 -7 23 -6 7 18 -21 33 -44
129 -45 188 0 51 7 58 63 60 35 2 -107 19 -193 23 -30 2 -67 6 -81 10 -31 9
-37 2 -68 -79 -13 -33 -27 -64 -31 -68 -10 -11 -68 82 -76 121 -7 35 -8 35
-41 22z"/>
<path d="M5385 7910 c3 -5 8 -10 11 -10 2 0 4 5 4 10 0 6 -5 10 -11 10 -5 0
-7 -4 -4 -10z"/>
<path d="M8958 7893 c7 -3 16 -2 19 1 4 3 -2 6 -13 5 -11 0 -14 -3 -6 -6z"/>
<path d="M9006 7853 c7 -21 13 -49 14 -63 0 -14 11 -56 25 -95 29 -83 24 -95
-38 -76 -66 20 -104 24 -124 12 -16 -9 -15 -10 10 -11 16 0 38 -5 49 -11 12
-6 79 -13 150 -15 l128 -4 24 37 c13 21 30 52 38 68 9 21 20 30 38 30 55 0 68
-38 18 -50 -29 -7 -30 -9 -10 -12 13 -3 30 1 38 8 12 10 21 4 54 -31 42 -46
65 -47 39 -2 -98 165 -153 242 -166 234 -6 -4 -25 -53 -43 -110 -40 -128 -62
-158 -112 -148 -34 6 -37 10 -56 74 -25 82 -35 169 -20 178 15 9 -11 24 -43
24 -26 0 -27 0 -13 -37z"/>
<path d="M8320 7685 c-17 -21 -9 -44 22 -63 39 -23 59 -3 29 29 -11 13 -21 29
-21 36 0 17 -15 17 -30 -2z"/>
<path d="M9278 7593 c7 -3 16 -2 19 1 4 3 -2 6 -13 5 -11 0 -14 -3 -6 -6z"/>
<path d="M7385 7415 c4 -11 11 -55 16 -99 5 -43 13 -95 19 -115 18 -67 10 -74
-49 -45 -24 12 -46 15 -81 10 -46 -6 -49 -5 -77 29 -16 19 -47 68 -68 108 -46
87 -73 127 -86 127 -6 0 -35 -53 -66 -117 -30 -65 -64 -130 -74 -145 l-19 -26
52 -5 c29 -3 69 -8 88 -12 l35 -6 -32 15 c-36 16 -41 37 -21 83 24 56 47 81
68 76 11 -3 20 -9 20 -14 0 -5 -11 -7 -24 -3 -16 4 -25 1 -29 -10 -9 -23 20
-47 48 -40 20 5 29 -1 52 -35 28 -41 44 -50 91 -56 75 -9 188 -19 196 -16 5 1
31 -3 59 -9 40 -8 59 -7 103 7 45 14 61 15 105 5 29 -7 54 -10 57 -7 3 3 -1 5
-9 5 -8 0 -29 13 -47 28 -26 21 -38 43 -53 97 -10 38 -19 88 -19 111 0 39 3
43 30 49 33 7 71 -2 82 -19 4 -6 8 -32 8 -58 0 -82 19 -143 56 -187 31 -36 41
-41 76 -41 35 0 47 6 78 39 44 46 52 79 44 171 -7 67 -6 68 22 83 23 12 26 17
13 22 -8 3 -26 2 -40 -3 -13 -5 -33 -6 -44 -2 -21 8 -307 22 -483 24 -100 2
-103 1 -97 -19z m168 -6 l39 -10 -4 -114 c-3 -101 -5 -117 -25 -136 -30 -30
-67 -20 -82 23 -7 18 -15 75 -18 127 -6 84 -4 95 12 107 23 17 29 17 78 3z
m383 -23 c16 -12 19 -27 19 -96 0 -78 -1 -83 -29 -106 -16 -14 -38 -24 -50
-22 -50 7 -82 172 -42 217 22 25 73 28 102 7z"/>
<path d="M8174 7406 c-34 -15 -84 -101 -84 -144 0 -14 21 -59 46 -100 42 -69
45 -79 36 -109 -12 -40 -9 -40 33 -8 18 13 51 32 74 41 56 22 131 106 131 147
0 44 -71 134 -124 157 -64 28 -79 30 -112 16z m127 -66 c72 -75 61 -130 -38
-196 -58 -39 -62 -40 -64 -26 0 4 -14 30 -30 58 -31 55 -35 83 -18 117 19 37
72 87 93 87 10 0 36 -18 57 -40z"/>
<path d="M8442 7368 c-16 -20 -25 -65 -13 -72 6 -4 17 9 25 29 15 34 17 35 69
35 l54 0 6 -78 c7 -105 33 -187 64 -201 34 -16 39 -14 18 9 -33 36 -60 223
-37 255 8 12 171 14 188 3 11 -7 20 -83 26 -200 1 -23 7 -38 15 -38 7 0 18 -9
25 -20 26 -41 35 -21 17 38 -9 31 -22 84 -28 117 -6 33 -14 71 -18 84 -6 23
-5 23 43 17 27 -4 60 -3 74 3 l25 10 -30 1 c-364 19 -512 21 -523 8z"/>
<path d="M9160 7306 c10 -29 26 -90 35 -135 13 -66 14 -85 4 -97 -11 -13 -9
-14 17 -8 16 4 30 8 32 9 2 2 17 -1 33 -5 l30 -9 -20 32 c-36 55 -63 119 -68
159 -3 21 -10 38 -15 38 -5 0 -6 9 -3 21 7 22 -17 48 -46 49 -15 0 -15 -5 1
-54z"/>
<path d="M9361 7290 c-24 -39 -49 -74 -57 -77 -15 -5 -13 -16 8 -72 7 -19 11
-21 23 -11 7 6 17 25 20 42 4 16 25 48 47 70 33 33 39 44 36 76 -5 61 -30 52
-77 -28z"/>
<path d="M9552 7319 c1 -12 8 -24 15 -26 7 -3 9 3 6 17 -8 29 -25 37 -21 9z"/>
<path d="M9250 7254 c0 -5 7 -19 15 -30 8 -10 15 -14 15 -8 0 5 -7 19 -15 30
-8 10 -15 14 -15 8z"/>
<path d="M8500 7239 c0 -5 5 -7 10 -4 6 3 10 8 10 11 0 2 -4 4 -10 4 -5 0 -10
-5 -10 -11z"/>
<path d="M9445 7191 c8 -32 20 -70 26 -85 13 -28 36 -37 24 -8 -9 22 -20 57
-34 110 -18 64 -31 50 -16 -17z"/>
<path d="M8461 7187 c-18 -23 -10 -57 20 -80 31 -22 119 -36 119 -18 0 6 -7
11 -16 11 -34 0 -94 43 -102 73 -7 26 -9 27 -21 14z"/>
<path d="M8796 7085 c-11 -8 -15 -15 -10 -15 6 0 19 7 30 15 10 8 15 14 9 14
-5 0 -19 -6 -29 -14z"/>
<path d="M9400 7064 l-25 -15 30 6 c17 4 34 11 40 16 15 15 -17 10 -45 -7z"/>
<path d="M7443 6901 c-42 -26 -83 -98 -83 -145 0 -40 20 -88 54 -124 28 -32
46 -41 106 -52 66 -13 100 4 137 67 57 97 26 201 -74 245 -67 30 -103 32 -140
9z m149 -60 c28 -25 32 -34 31 -78 -1 -93 -51 -143 -128 -129 -89 17 -98 157
-15 214 44 29 73 28 112 -7z"/>
<path d="M7733 6902 c-13 -2 -23 -9 -23 -17 0 -10 9 -11 35 -5 41 9 39 17 23
-111 -11 -92 -11 -98 10 -133 l21 -36 -23 0 c-19 0 -22 4 -18 30 6 40 -11 38
-26 -2 -6 -18 -23 -46 -37 -62 -38 -44 -30 -53 13 -14 l39 35 84 -14 c48 -8
108 -11 141 -7 55 6 57 7 53 32 -2 15 -9 56 -14 92 -18 112 -22 165 -14 176
11 15 46 25 58 16 14 -10 122 -194 171 -292 27 -54 53 -90 54 -73 0 6 -4 15
-10 18 -17 10 -11 39 21 116 17 41 37 94 45 118 16 49 39 80 69 91 16 6 10 10
-29 18 -27 6 -55 8 -61 5 -14 -5 -85 -146 -85 -169 0 -7 -3 -14 -7 -14 -12 1
-104 157 -106 180 -1 15 -9 20 -32 21 -132 3 -334 4 -352 1z m216 -36 c8 -10
11 -52 9 -131 -3 -102 -5 -118 -22 -131 -45 -32 -87 -5 -113 71 -11 32 -10
176 2 194 10 17 110 14 124 -3z"/>
<path d="M7846 6751 c-7 -11 41 -24 55 -16 5 4 7 11 4 16 -8 12 -52 12 -59 0z"/>
<path d="M8469 6870 c-9 -5 -20 -22 -23 -37 -4 -16 -17 -53 -29 -85 l-21 -56
-28 14 c-15 8 -28 11 -28 6 0 -13 30 -71 40 -77 5 -3 12 -26 16 -50 3 -25 10
-45 14 -45 11 0 53 101 86 204 22 67 35 91 52 99 22 10 21 11 -15 24 -45 15
-44 15 -64 3z"/>
<path d="M8940 6870 c-14 -4 -81 -9 -150 -10 -108 -1 -121 -3 -97 -14 17 -8
46 -10 76 -6 26 3 53 4 59 2 7 -2 12 -25 12 -55 0 -29 9 -86 19 -127 11 -41
16 -79 11 -84 -15 -16 -78 4 -100 31 -11 14 -23 23 -26 20 -11 -11 5 -55 23
-62 10 -4 118 -9 240 -11 l222 -4 -23 25 c-17 18 -27 50 -39 117 -26 144 -26
133 10 134 47 0 53 14 7 14 -22 0 -57 9 -79 20 -41 21 -117 25 -165 10z m127
-19 c11 -11 28 -49 37 -88 10 -37 24 -92 32 -122 7 -30 12 -57 9 -59 -2 -3
-48 -5 -102 -6 -78 -1 -101 2 -114 15 -20 20 -51 156 -47 205 3 36 5 38 63 55
79 23 97 23 122 0z"/>
<path d="M8618 6853 c7 -3 16 -2 19 1 4 3 -2 6 -13 5 -11 0 -14 -3 -6 -6z"/>
<path d="M9313 6835 c-17 -7 -41 -23 -52 -34 -20 -20 -20 -24 -7 -50 17 -32
103 -91 133 -91 11 0 26 7 33 15 24 29 32 16 28 -48 l-4 -62 41 0 41 0 -24
105 c-13 58 -25 115 -28 127 -9 46 -96 67 -161 38z m113 -42 c3 -16 7 -33 9
-40 10 -33 -60 -63 -102 -44 -22 10 -24 16 -18 49 8 45 28 62 72 62 27 0 34
-4 39 -27z"/>
<path d="M8780 6722 c-12 -10 -21 -26 -19 -36 3 -15 8 -12 27 14 28 37 24 48
-8 22z"/>
<path d="M7121 6344 c-36 -30 -71 -100 -71 -141 1 -41 50 -124 87 -146 46 -26
136 -34 167 -14 32 21 76 112 76 156 0 61 -38 118 -97 146 -69 33 -122 33
-162 -1z m146 -24 c57 -34 66 -152 15 -202 -29 -30 -99 -42 -128 -23 -80 52
-72 163 16 222 40 28 56 28 97 3z"/>
<path d="M7416 6338 c-7 -13 -16 -36 -20 -53 l-6 -30 19 25 c48 61 51 63 97
56 50 -6 61 8 13 18 -59 12 -88 7 -103 -16z"/>
<path d="M7579 6347 c-9 -7 -15 -16 -13 -22 1 -5 4 -69 7 -142 l5 -132 -31
-10 c-17 -6 -27 -14 -24 -17 3 -4 19 -2 34 3 15 6 46 8 68 5 38 -4 39 -4 24
14 -38 43 -60 235 -34 297 8 20 -12 23 -36 4z"/>
<path d="M8026 6350 c-15 -5 -68 -7 -117 -5 -55 3 -89 1 -89 -5 0 -6 30 -10
69 -10 39 0 73 -5 76 -10 4 -6 1 -32 -5 -58 -10 -41 -9 -57 9 -124 12 -43 21
-82 21 -88 0 -13 -61 -13 -96 0 -24 10 -26 14 -21 51 6 47 -3 42 -32 -16 l-19
-40 41 -13 c62 -19 266 -27 527 -21 19 1 65 -2 101 -6 50 -6 72 -4 95 8 20 10
44 14 72 10 23 -3 42 -4 42 -1 0 2 -9 21 -20 43 -11 22 -20 53 -20 70 0 16 -4
46 -9 65 -5 19 -12 52 -16 74 l-6 38 54 -6 c52 -7 86 5 53 17 -37 15 -477 36
-541 27 -11 -1 -47 0 -80 3 -33 4 -73 2 -89 -3z m100 -21 c35 -9 44 -15 39
-28 -4 -9 -6 -69 -5 -133 1 -129 -3 -138 -69 -138 -25 0 -61 21 -61 36 0 2 -7
50 -15 107 -18 119 -15 142 22 155 37 14 37 14 89 1z m215 -21 c12 -18 10
-237 -1 -258 -21 -39 -86 -17 -114 38 -30 61 -26 212 6 234 16 11 101 0 109
-14z m263 -56 c9 -98 7 -171 -4 -193 -13 -23 -61 -49 -93 -49 -37 0 -87 29
-99 59 -12 29 -17 220 -6 236 4 6 48 11 101 12 l94 2 7 -67z"/>
<path d="M8235 6180 c8 -13 45 -13 65 0 11 7 3 10 -28 10 -26 0 -41 -4 -37
-10z"/>
<path d="M9020 6332 c0 -5 6 -15 14 -21 8 -7 18 -27 21 -44 4 -18 20 -74 36
-126 24 -75 28 -96 17 -102 -18 -12 -49 -11 -87 2 -17 6 -39 8 -49 4 -16 -6
-16 -7 2 -17 25 -14 295 -27 322 -15 12 5 36 39 54 78 47 97 74 104 82 22 3
-27 7 -55 9 -63 3 -9 -4 -15 -16 -16 -11 0 -31 -5 -45 -9 -23 -7 -23 -8 -5
-15 11 -4 48 -5 82 -2 l63 4 -19 27 c-23 34 -55 161 -55 228 l-1 52 -62 7
c-77 8 -108 1 -139 -33 -27 -29 -32 -78 -11 -108 19 -26 33 -13 40 37 7 54 37
80 86 76 30 -3 36 -7 39 -29 2 -19 -9 -39 -41 -75 -24 -27 -51 -62 -60 -79
-25 -48 -61 -77 -93 -73 -26 3 -31 10 -56 83 -14 44 -30 101 -33 127 -6 41 -5
49 11 54 58 18 56 23 -6 21 -36 -1 -73 2 -82 7 -11 5 -18 4 -18 -2z"/>
<path d="M7465 6209 c-4 -6 -5 -13 -2 -16 7 -7 27 6 27 18 0 12 -17 12 -25 -2z"/>
<path d="M7892 6193 c-18 -32 -15 -51 4 -25 8 12 14 28 11 35 -2 7 -8 3 -15
-10z"/>
<path d="M7657 5746 c-15 -30 -40 -90 -56 -133 -42 -113 -52 -132 -73 -139
-14 -4 -29 3 -47 20 -44 42 -104 29 -61 -14 13 -13 34 -20 63 -21 101 -2 175
-7 220 -14 33 -5 47 -4 47 4 0 6 -7 11 -15 11 -32 0 -93 39 -90 57 2 10 4 22
4 26 1 5 6 5 12 1 8 -5 8 -9 -1 -14 -21 -13 9 -24 33 -12 12 6 37 15 54 21 29
9 35 7 53 -16 28 -36 25 -49 -12 -62 -45 -16 -28 -24 22 -11 24 6 54 9 69 5
23 -6 158 -6 221 -1 26 2 40 20 18 23 -7 1 -30 4 -50 8 l-38 6 0 59 c0 33 -5
92 -12 131 -12 70 -12 71 12 90 l25 19 -52 -3 c-29 -1 -53 -4 -53 -7 0 -3 5
-21 10 -40 6 -19 10 -71 11 -115 1 -120 -23 -163 -75 -135 -25 13 -107 133
-149 215 -14 28 -33 61 -44 74 l-19 23 -27 -56z"/>
<path d="M8235 5786 c-42 -18 -115 -124 -115 -168 0 -35 40 -109 76 -139 36
-31 89 -38 331 -43 134 -2 247 -8 253 -11 6 -4 42 -1 80 6 65 11 70 14 70 38
0 15 -8 31 -19 38 -24 15 -71 113 -71 149 l0 28 33 -33 c22 -20 41 -54 53 -91
10 -33 21 -60 24 -60 3 0 27 38 53 85 27 47 52 85 57 85 5 0 12 -17 15 -37 3
-21 13 -68 22 -105 8 -37 12 -72 8 -77 -3 -6 -21 -11 -39 -11 -41 0 -103 -24
-88 -34 6 -4 35 0 64 8 29 8 64 16 78 18 16 2 24 9 21 18 -49 189 -61 241 -61
271 0 19 -6 44 -14 55 -18 24 -26 17 -81 -74 -36 -60 -75 -92 -75 -62 0 7 -18
30 -40 52 -45 46 -50 63 -18 71 55 15 -12 20 -282 23 -160 2 -294 6 -298 8 -4
2 -21 -1 -37 -8z m525 -26 c31 -16 73 -267 50 -295 -24 -29 -89 -14 -110 24
-19 37 -57 207 -53 238 4 25 11 33 32 36 49 7 62 7 81 -3z m-275 -8 c22 1 58
2 80 2 l40 1 6 -90 c4 -49 11 -109 17 -133 13 -54 2 -60 -74 -42 -42 10 -57
11 -66 2 -19 -19 -45 -14 -66 13 -19 24 -52 169 -52 229 0 27 1 28 38 22 20
-3 55 -5 77 -4z m-165 -14 c0 -7 5 -53 11 -103 l10 -90 -26 -22 c-36 -31 -71
-29 -106 6 -47 48 -38 109 27 180 36 40 84 56 84 29z"/>
<path d="M8543 5623 c-7 -2 -13 -11 -13 -19 0 -11 5 -11 25 -2 39 18 28 38
-12 21z"/>
<path d="M8898 5783 c6 -2 18 -2 25 0 6 3 1 5 -13 5 -14 0 -19 -2 -12 -5z"/>
<path d="M9405 5743 c4 -10 18 -59 31 -110 13 -50 32 -106 43 -124 11 -18 18
-36 15 -41 -8 -13 -51 -9 -90 7 -27 11 -41 12 -56 4 -19 -10 -19 -11 7 -25 19
-9 56 -13 116 -12 49 1 89 4 89 7 0 2 -6 12 -13 20 -13 15 -78 232 -77 258 0
14 -31 33 -55 33 -12 0 -15 -5 -10 -17z"/>
<path d="M9576 4803 c-9 -16 -31 -45 -51 -67 -19 -21 -35 -47 -35 -58 0 -41
52 -226 79 -283 l29 -60 1 248 c1 136 -1 247 -4 247 -2 0 -11 -12 -19 -27z"/>
<path d="M9591 4194 c0 -11 3 -14 6 -6 3 7 2 16 -1 19 -3 4 -6 -2 -5 -13z"/>
<path d="M8480 3560 c0 -25 34 -32 122 -25 60 4 103 3 122 -5 36 -13 44 -7 14
12 -24 16 -258 32 -258 18z"/>
<path d="M9590 3133 c0 -9 -79 -91 -190 -198 -86 -83 -145 -168 -166 -243 -18
-62 -14 -128 18 -287 19 -99 23 -116 53 -245 44 -190 108 -510 125 -620 11
-69 31 -179 44 -245 13 -66 29 -156 36 -200 6 -44 25 -134 42 -200 18 -66 34
-154 38 -195 4 -41 8 491 8 1183 1 691 0 1257 -3 1257 -3 0 -5 -3 -5 -7z
m-240 -493 c12 -8 9 -10 -12 -10 -16 0 -28 5 -28 10 0 13 20 13 40 0z"/>
<path d="M2345 1514 c-154 -91 -253 -140 -337 -169 -143 -48 -204 -72 -301
-119 -93 -44 -98 -48 -83 -65 18 -20 20 -48 7 -83 -4 -13 -11 -59 -15 -103 -6
-75 -6 -79 10 -60 16 19 16 18 9 -25 -4 -25 -8 -75 -10 -111 -4 -73 -19 -139
-70 -304 -19 -60 -37 -128 -41 -150 -4 -22 -13 -57 -20 -77 -7 -22 -9 -38 -4
-38 17 0 11 -54 -10 -87 -24 -40 -65 -62 -122 -65 -41 -3 -44 -4 -40 -30 l4
-28 269 0 269 0 -20 37 c-15 31 -20 63 -22 166 -2 111 -5 131 -22 149 -17 18
-19 33 -17 127 4 147 8 203 25 376 9 83 16 158 16 167 0 10 10 27 22 38 19 18
20 22 8 30 -12 8 -13 13 -2 30 7 11 8 20 3 20 -6 0 -13 -4 -16 -10 -3 -5 -13
-10 -22 -10 -14 0 -13 3 3 21 24 27 53 42 155 79 46 16 87 26 91 22 5 -5 5
-20 0 -33 -5 -13 -12 -49 -16 -79 l-6 -55 20 40 c11 22 20 48 20 58 0 10 14
52 31 93 25 60 41 83 79 113 26 21 61 43 78 50 17 7 30 18 29 25 -1 6 10 12
26 14 15 2 25 8 21 13 -3 6 3 13 14 16 11 3 23 11 26 19 3 8 12 14 21 14 8 0
15 5 15 10 0 6 6 10 13 10 6 0 21 7 31 15 49 37 -18 8 -119 -51z m-255 -201
c-1 -20 -21 -33 -89 -57 -80 -28 -128 -34 -71 -10 19 9 60 29 90 44 58 31 70
35 70 23z m-290 -994 c0 -5 -4 -9 -10 -9 -5 0 -10 7 -10 16 0 8 5 12 10 9 6
-3 10 -10 10 -16z m-3 -65 c-9 -9 -28 6 -21 18 4 6 10 6 17 -1 6 -6 8 -13 4
-17z"/>
<path d="M1478 1210 c-9 -6 -71 -15 -139 -20 -129 -11 -192 -25 -210 -47 -6
-7 -17 -13 -23 -13 -6 0 -20 -8 -31 -16 -19 -16 -19 -16 8 -11 18 3 26 0 24
-7 -2 -6 -10 -11 -18 -11 -8 0 -13 -9 -12 -19 0 -10 -11 -29 -25 -42 -18 -15
-23 -26 -16 -31 12 -9 34 -132 34 -194 0 -77 88 -346 175 -534 13 -27 28 -68
35 -90 13 -41 36 -75 52 -75 4 0 5 33 2 72 -4 40 -5 123 -3 183 2 61 3 173 2
250 -5 314 -4 360 12 418 8 32 15 68 15 81 0 19 12 29 63 53 34 17 68 38 76
47 15 18 5 21 -21 6z m-179 -853 c1 -27 -3 -37 -11 -34 -7 2 -13 9 -12 15 1 7
2 31 3 55 2 33 4 38 11 22 5 -11 9 -37 9 -58z m-20 -79 c-9 -16 -14 -19 -17
-9 -2 7 2 17 9 22 20 13 21 11 8 -13z m38 -80 c-3 -8 -6 -5 -6 6 -1 11 2 17 5
13 3 -3 4 -12 1 -19z"/>
<path d="M800 840 c0 -5 7 -10 15 -10 8 0 15 5 15 10 0 6 -7 10 -15 10 -8 0
-15 -4 -15 -10z"/>
<path d="M650 785 c-30 -25 -66 -54 -78 -65 -13 -11 -28 -20 -34 -20 -6 0 -5
-6 2 -15 7 -8 16 -15 21 -15 5 0 9 7 9 15 0 8 6 15 14 15 16 0 136 107 136
121 0 17 -15 9 -70 -36z"/>
<path d="M740 775 c0 -8 7 -15 15 -15 8 0 15 7 15 15 0 8 -7 15 -15 15 -8 0
-15 -7 -15 -15z"/>
<path d="M3120 760 c0 -5 5 -10 10 -10 6 0 10 5 10 10 0 6 -4 10 -10 10 -5 0
-10 -4 -10 -10z"/>
<path d="M2177 698 c-9 -24 -30 -81 -47 -127 -17 -46 -29 -86 -27 -88 2 -2 26
53 52 122 26 70 45 129 42 131 -3 3 -12 -14 -20 -38z"/>
<path d="M3771 704 c0 -11 3 -14 6 -6 3 7 2 16 -1 19 -3 4 -6 -2 -5 -13z"/>
<path d="M620 689 c0 -5 5 -7 10 -4 6 3 10 8 10 11 0 2 -4 4 -10 4 -5 0 -10
-5 -10 -11z"/>
<path d="M780 665 c-7 -8 -8 -15 -2 -15 5 0 15 7 22 15 7 8 8 15 2 15 -5 0
-15 -7 -22 -15z"/>
<path d="M567 650 c15 -16 109 -41 128 -33 28 10 15 20 -32 26 -27 4 -61 9
-78 13 -24 5 -28 4 -18 -6z"/>
<path d="M725 650 c4 -6 11 -8 16 -5 14 9 11 15 -7 15 -8 0 -12 -5 -9 -10z"/>
<path d="M748 594 c-10 -3 -18 -15 -18 -26 0 -23 -105 -185 -179 -275 -14 -18
-46 -58 -71 -90 -62 -79 -135 -153 -151 -153 -9 0 -10 3 -4 8 9 6 63 73 99
121 7 10 -1 8 -23 -5 -18 -10 -64 -53 -103 -94 l-70 -75 266 -3 c146 -1 385
-1 531 0 l264 3 -30 48 c-17 27 -43 81 -59 120 -57 144 -138 343 -149 367 -10
21 -24 28 -79 39 -76 14 -198 23 -224 15z m180 -326 c34 -10 102 -68 102 -87
0 -6 4 -11 10 -11 5 0 2 -9 -7 -20 -16 -18 -18 -18 -35 -3 -10 9 -18 22 -18
29 0 17 -29 7 -53 -18 -22 -22 -27 -23 -27 -3 0 8 7 15 16 15 8 0 12 5 9 10
-13 21 -45 9 -67 -25 -13 -19 -28 -35 -35 -35 -30 0 -25 82 6 100 13 7 14 12
4 28 -8 14 -9 22 -1 30 11 11 34 9 96 -10z m152 -138 c25 -22 20 -26 -11 -10
-10 6 -19 15 -19 20 0 14 4 13 30 -10z"/>
<path d="M3770 586 c0 -8 5 -18 10 -21 6 -3 10 3 10 14 0 12 -4 21 -10 21 -5
0 -10 -6 -10 -14z"/>
<path d="M2880 555 c0 -8 7 -15 15 -15 8 0 15 7 15 15 0 8 -7 15 -15 15 -8 0
-15 -7 -15 -15z"/>
<path d="M2883 501 c3 -12 -1 -22 -10 -25 -9 -4 -13 -13 -9 -22 4 -9 2 -22 -3
-28 -5 -6 -15 -49 -21 -96 -6 -47 -15 -89 -20 -95 -4 -5 -19 -56 -34 -113 -14
-57 -28 -107 -31 -113 -4 -5 61 -9 165 -9 135 0 174 3 186 14 16 17 18 30 5
54 -5 9 -22 49 -37 87 -15 39 -48 113 -73 165 -25 52 -47 99 -47 105 -1 5 -2
15 -3 22 -1 16 -51 73 -63 73 -6 0 -8 -9 -5 -19z"/>
<path d="M3245 500 c3 -5 8 -10 11 -10 2 0 4 5 4 10 0 6 -5 10 -11 10 -5 0 -7
-4 -4 -10z"/>
<path d="M3210 411 c0 -6 5 -13 10 -16 6 -3 10 1 10 9 0 9 -4 16 -10 16 -5 0
-10 -4 -10 -9z"/>
<path d="M1405 328 c-39 -121 -52 -224 -32 -245 14 -13 20 9 29 99 5 51 11
110 14 131 5 42 0 48 -11 15z"/>
<path d="M8918 137 c-28 -88 -30 -97 -21 -97 9 0 53 116 53 139 0 28 -16 6
-32 -42z"/>
<path d="M88 93 c-27 -33 -45 -68 -41 -80 3 -9 28 -13 74 -13 67 0 69 1 59 20
-8 14 -21 20 -46 20 -36 0 -36 0 -30 35 8 40 5 42 -16 18z m72 -73 c0 -5 -4
-10 -10 -10 -5 0 -10 5 -10 10 0 6 5 10 10 10 6 0 10 -4 10 -10z"/>
<path d="M6198 93 c7 -3 16 -2 19 1 4 3 -2 6 -13 5 -11 0 -14 -3 -6 -6z"/>
<path d="M240 75 c0 -8 4 -15 9 -15 5 0 11 7 15 15 3 9 0 15 -9 15 -8 0 -15
-7 -15 -15z"/>
</g>
</svg>
